<?xml version="1.0" encoding="UTF-8" standalone="no"?>
<!DOCTYPE svg PUBLIC "-//W3C//DTD SVG 1.1//EN" "http://www.w3.org/Graphics/SVG/1.1/DTD/svg11.dtd">
<svg width="120px" height="380px" version="1.1" xmlns="http://www.w3.org/2000/svg" xmlns:xlink="http://www.w3.org/1999/xlink" xml:space="preserve" xmlns:serif="http://www.serif.com/" style="fill-rule:evenodd;clip-rule:evenodd;stroke-linejoin:round;stroke-miterlimit:2;">
    <rect x="0" y="0" width="120" height="380" style="fill:rgb(192,192,192);"/>
    <g id="Layer-1" serif:id="Layer 1">
        <path d="M113.295,240.399c0,-6.158 -4.999,-11.157 -11.156,-11.157l-22.313,0c-6.158,0 -11.157,4.999 -11.157,11.157l0,24.036c0,6.158 4.999,11.157 11.157,11.157l22.313,0c6.157,0 11.156,-4.999 11.156,-11.157l0,-24.036Z" style="fill:rgb(0,56,200);fill-opacity:0.1;"/>
        <path d="M18.601,364.932c-0.241,0.138 -0.49,0.242 -0.746,0.311c-0.256,0.069 -0.517,0.103 -0.785,0.103c-0.848,0 -1.51,-0.25 -1.988,-0.752c-0.478,-0.501 -0.717,-1.196 -0.717,-2.083c0,-0.887 0.239,-1.581 0.717,-2.083c0.478,-0.501 1.14,-0.752 1.988,-0.752c0.264,0 0.522,0.034 0.773,0.101c0.251,0.068 0.504,0.172 0.758,0.314l0,0.93c-0.238,-0.209 -0.477,-0.36 -0.716,-0.453c-0.24,-0.093 -0.511,-0.14 -0.815,-0.14c-0.564,0 -0.998,0.18 -1.301,0.54c-0.303,0.36 -0.455,0.874 -0.455,1.543c0,0.666 0.153,1.179 0.458,1.541c0.305,0.361 0.737,0.542 1.298,0.542c0.313,0 0.594,-0.047 0.842,-0.142c0.247,-0.095 0.477,-0.242 0.689,-0.441l0,0.921Z" style="fill-rule:nonzero;"/>
        <path d="M22.96,363.254c0,0.398 0.074,0.699 0.222,0.901c0.148,0.203 0.368,0.304 0.658,0.304l1.052,0l0,0.748l-1.14,0c-0.538,0 -0.955,-0.17 -1.25,-0.509c-0.295,-0.339 -0.443,-0.821 -0.443,-1.444l0,-4.885l-1.442,0l0,-0.694l2.343,0l0,5.579Z" style="fill-rule:nonzero;"/>
        <path d="M28.487,360.428c-0.457,0 -0.802,0.175 -1.037,0.526c-0.235,0.35 -0.352,0.869 -0.352,1.557c0,0.685 0.117,1.203 0.352,1.555c0.235,0.352 0.58,0.528 1.037,0.528c0.46,0 0.807,-0.176 1.042,-0.528c0.234,-0.352 0.352,-0.87 0.352,-1.555c0,-0.688 -0.118,-1.207 -0.352,-1.557c-0.235,-0.351 -0.582,-0.526 -1.042,-0.526Zm0,-0.752c0.76,0 1.341,0.243 1.744,0.728c0.402,0.485 0.604,1.188 0.604,2.107c0,0.923 -0.201,1.626 -0.602,2.11c-0.401,0.483 -0.983,0.725 -1.746,0.725c-0.76,0 -1.34,-0.242 -1.742,-0.725c-0.401,-0.484 -0.601,-1.187 -0.601,-2.11c0,-0.919 0.2,-1.622 0.601,-2.107c0.402,-0.485 0.982,-0.728 1.742,-0.728Z" style="fill-rule:nonzero;"/>
        <path d="M36.694,364.932c-0.241,0.138 -0.49,0.242 -0.745,0.311c-0.256,0.069 -0.518,0.103 -0.786,0.103c-0.847,0 -1.51,-0.25 -1.988,-0.752c-0.478,-0.501 -0.716,-1.196 -0.716,-2.083c0,-0.887 0.238,-1.581 0.716,-2.083c0.478,-0.501 1.141,-0.752 1.988,-0.752c0.265,0 0.522,0.034 0.773,0.101c0.251,0.068 0.504,0.172 0.758,0.314l0,0.93c-0.238,-0.209 -0.476,-0.36 -0.716,-0.453c-0.24,-0.093 -0.511,-0.14 -0.815,-0.14c-0.564,0 -0.997,0.18 -1.301,0.54c-0.303,0.36 -0.455,0.874 -0.455,1.543c0,0.666 0.153,1.179 0.458,1.541c0.305,0.361 0.738,0.542 1.298,0.542c0.313,0 0.594,-0.047 0.842,-0.142c0.248,-0.095 0.477,-0.242 0.689,-0.441l0,0.921Z" style="fill-rule:nonzero;"/>
        <path d="M38.69,357.704l0.929,0l0,4.344l2.363,-2.242l1.096,0l-2.157,2.035l2.494,3.366l-1.1,0l-2.025,-2.788l-0.671,0.623l0,2.165l-0.929,0l0,-7.503Z" style="fill-rule:nonzero;"/>
        <path d="M81.223,361.696c-0.192,-0.148 -0.388,-0.255 -0.587,-0.323c-0.199,-0.067 -0.417,-0.101 -0.655,-0.101c-0.561,0 -0.99,0.173 -1.286,0.521c-0.297,0.347 -0.446,0.848 -0.446,1.504l0,2.686l-0.904,0l0,-5.401l0.904,0l0,1.056c0.15,-0.382 0.381,-0.676 0.693,-0.88c0.311,-0.204 0.68,-0.306 1.107,-0.306c0.222,0 0.429,0.027 0.622,0.082c0.192,0.055 0.376,0.14 0.552,0.256l0,0.906Z" style="fill-rule:nonzero;"/>
        <path d="M87.083,362.839l0,0.434l-3.898,0l0,0.029c-0.026,0.736 0.116,1.265 0.428,1.586c0.311,0.322 0.751,0.482 1.318,0.482c0.287,0 0.587,-0.045 0.9,-0.135c0.313,-0.09 0.647,-0.226 1.003,-0.409l0,0.882c-0.343,0.138 -0.673,0.242 -0.991,0.311c-0.318,0.069 -0.625,0.104 -0.922,0.104c-0.851,0 -1.516,-0.252 -1.995,-0.755c-0.48,-0.503 -0.719,-1.197 -0.719,-2.081c0,-0.861 0.234,-1.549 0.704,-2.063c0.469,-0.515 1.096,-0.772 1.878,-0.772c0.698,0 1.248,0.233 1.651,0.699c0.403,0.466 0.617,1.029 0.643,1.688Zm-0.9,-0.26c-0.039,-0.373 -0.177,-0.696 -0.413,-0.967c-0.237,-0.272 -0.576,-0.408 -1.02,-0.408c-0.434,0 -0.791,0.142 -1.071,0.425c-0.281,0.283 -0.434,0.601 -0.46,0.954l2.964,-0.004Z" style="fill-rule:nonzero;"/>
        <path d="M92.395,360.77l0,0.868c-0.257,-0.148 -0.517,-0.258 -0.778,-0.332c-0.26,-0.074 -0.526,-0.111 -0.797,-0.111c-0.407,0 -0.711,0.065 -0.912,0.195c-0.201,0.13 -0.301,0.329 -0.301,0.596c0,0.241 0.075,0.421 0.225,0.54c0.15,0.119 0.524,0.234 1.12,0.347l0.362,0.067c0.447,0.084 0.785,0.251 1.015,0.502c0.23,0.25 0.345,0.577 0.345,0.979c0,0.533 -0.192,0.95 -0.577,1.251c-0.385,0.3 -0.92,0.451 -1.605,0.451c-0.27,0 -0.554,-0.028 -0.851,-0.085c-0.296,-0.056 -0.618,-0.14 -0.963,-0.253l0,-0.916c0.336,0.17 0.657,0.298 0.963,0.383c0.307,0.086 0.597,0.128 0.871,0.128c0.398,0 0.706,-0.079 0.925,-0.239c0.218,-0.159 0.327,-0.381 0.327,-0.667c0,-0.412 -0.399,-0.696 -1.198,-0.854l-0.039,-0.01l-0.338,-0.067c-0.518,-0.1 -0.897,-0.268 -1.135,-0.504c-0.238,-0.236 -0.357,-0.558 -0.357,-0.967c0,-0.517 0.178,-0.917 0.534,-1.198c0.355,-0.281 0.862,-0.422 1.521,-0.422c0.293,0 0.575,0.027 0.846,0.08c0.271,0.053 0.536,0.132 0.797,0.238Z" style="fill-rule:nonzero;"/>
        <path d="M99.145,362.839l0,0.434l-3.898,0l0,0.029c-0.026,0.736 0.116,1.265 0.428,1.586c0.311,0.322 0.751,0.482 1.318,0.482c0.287,0 0.587,-0.045 0.9,-0.135c0.313,-0.09 0.647,-0.226 1.003,-0.409l0,0.882c-0.343,0.138 -0.673,0.242 -0.991,0.311c-0.318,0.069 -0.625,0.104 -0.922,0.104c-0.851,0 -1.516,-0.252 -1.995,-0.755c-0.48,-0.503 -0.719,-1.197 -0.719,-2.081c0,-0.861 0.234,-1.549 0.704,-2.063c0.47,-0.515 1.096,-0.772 1.878,-0.772c0.698,0 1.248,0.233 1.651,0.699c0.403,0.466 0.617,1.029 0.643,1.688Zm-0.9,-0.26c-0.039,-0.373 -0.177,-0.696 -0.413,-0.967c-0.236,-0.272 -0.576,-0.408 -1.02,-0.408c-0.434,0 -0.791,0.142 -1.071,0.425c-0.281,0.283 -0.434,0.601 -0.46,0.954l2.964,-0.004Z" style="fill-rule:nonzero;"/>
        <path d="M102.701,359.049l0,1.533l2.045,0l0,0.69l-2.045,0l0,2.932c0,0.398 0.077,0.676 0.23,0.834c0.153,0.157 0.421,0.236 0.802,0.236l1.013,0l0,0.709l-1.101,0c-0.675,0 -1.151,-0.134 -1.428,-0.4c-0.277,-0.267 -0.416,-0.727 -0.416,-1.379l0,-2.932l-1.462,0l0,-0.69l1.462,0l0,-1.533l0.9,0Z" style="fill-rule:nonzero;"/>
        <path d="M51.583,240.399c0,-6.158 -4.999,-11.157 -11.157,-11.157l-22.313,0c-6.157,0 -11.156,4.999 -11.156,11.157l0,24.036c0,6.158 4.999,11.157 11.156,11.157l22.313,0c6.158,0 11.157,-4.999 11.157,-11.157l0,-24.036Z" style="fill:rgb(0,56,200);fill-opacity:0.1;"/>
        <path d="M51.583,288.748c0,-6.157 -4.999,-11.156 -11.157,-11.156l-22.313,0c-6.157,0 -11.156,4.999 -11.156,11.156l0,24.037c0,6.157 4.999,11.156 11.156,11.156l22.313,0c6.158,0 11.157,-4.999 11.157,-11.156l0,-24.037Z" style="fill:rgb(0,56,200);fill-opacity:0.1;"/>
        <path d="M113.197,288.748c0,-6.157 -4.999,-11.156 -11.156,-11.156l-22.314,0c-6.157,0 -11.156,4.999 -11.156,11.156l0,24.037c0,6.157 4.999,11.156 11.156,11.156l22.314,0c6.157,0 11.156,-4.999 11.156,-11.156l0,-24.037Z" style="fill:rgb(0,56,200);fill-opacity:0.1;"/>
        <path d="M18.807,261.597c0.098,-0.205 0.224,-0.357 0.376,-0.456c0.152,-0.099 0.335,-0.148 0.55,-0.148c0.391,0 0.667,0.149 0.828,0.448c0.161,0.299 0.241,0.861 0.241,1.687l0,2.781l-0.73,0l0,-2.747c0,-0.677 -0.039,-1.098 -0.115,-1.262c-0.077,-0.165 -0.217,-0.247 -0.42,-0.247c-0.232,0 -0.391,0.088 -0.476,0.264c-0.086,0.175 -0.128,0.591 -0.128,1.245l0,2.747l-0.731,0l0,-2.747c0,-0.686 -0.041,-1.109 -0.124,-1.269c-0.082,-0.16 -0.231,-0.24 -0.445,-0.24c-0.212,0 -0.359,0.088 -0.442,0.264c-0.082,0.175 -0.124,0.591 -0.124,1.245l0,2.747l-0.726,0l0,-4.8l0.726,0l0,0.411c0.096,-0.171 0.216,-0.302 0.359,-0.392c0.144,-0.09 0.307,-0.135 0.489,-0.135c0.221,0 0.404,0.05 0.55,0.15c0.147,0.1 0.26,0.252 0.342,0.454Z" style="fill-rule:nonzero;"/>
        <path d="M25.028,263.496l-1.013,0c-0.466,0 -0.818,0.081 -1.054,0.242c-0.236,0.162 -0.354,0.403 -0.354,0.723c0,0.288 0.088,0.512 0.265,0.672c0.177,0.16 0.422,0.24 0.735,0.24c0.44,0 0.787,-0.15 1.039,-0.452c0.252,-0.301 0.379,-0.718 0.382,-1.249l0,-0.176Zm0.805,-0.326l0,2.739l-0.805,0l0,-0.711c-0.171,0.285 -0.386,0.496 -0.645,0.632c-0.26,0.136 -0.575,0.204 -0.946,0.204c-0.496,0 -0.891,-0.138 -1.187,-0.414c-0.296,-0.276 -0.443,-0.645 -0.443,-1.108c0,-0.534 0.182,-0.94 0.545,-1.217c0.364,-0.277 0.898,-0.416 1.602,-0.416l1.074,0l0,-0.124c-0.003,-0.383 -0.101,-0.661 -0.295,-0.834c-0.194,-0.173 -0.505,-0.259 -0.931,-0.259c-0.272,0 -0.548,0.038 -0.826,0.115c-0.278,0.078 -0.549,0.19 -0.813,0.339l0,-0.789c0.296,-0.111 0.579,-0.195 0.85,-0.25c0.271,-0.056 0.534,-0.084 0.789,-0.084c0.403,0 0.747,0.059 1.033,0.176c0.285,0.117 0.517,0.293 0.693,0.527c0.111,0.143 0.189,0.319 0.235,0.529c0.047,0.21 0.07,0.525 0.07,0.945Z" style="fill-rule:nonzero;"/>
        <path d="M27.963,261.126l2.048,0l0,4.17l1.587,0l0,0.613l-3.974,0l0,-0.613l1.587,0l0,-3.557l-1.248,0l0,-0.613Zm1.248,-1.864l0.8,0l0,0.994l-0.8,0l0,-0.994Z" style="fill-rule:nonzero;"/>
        <path d="M36.52,262.935l0,2.974l-0.805,0l0,-2.974c0,-0.432 -0.076,-0.749 -0.23,-0.952c-0.154,-0.203 -0.394,-0.304 -0.722,-0.304c-0.374,0 -0.661,0.131 -0.863,0.392c-0.201,0.261 -0.302,0.637 -0.302,1.125l0,2.713l-0.8,0l0,-4.8l0.8,0l0,0.72c0.142,-0.274 0.335,-0.482 0.578,-0.624c0.244,-0.141 0.532,-0.212 0.866,-0.212c0.495,0 0.866,0.161 1.11,0.482c0.245,0.322 0.368,0.808 0.368,1.46Z" style="fill-rule:nonzero;"/>
        <path d="M20.267,308.078l0,0.879c-0.266,-0.169 -0.534,-0.296 -0.802,-0.382c-0.268,-0.085 -0.538,-0.128 -0.811,-0.128c-0.414,0 -0.742,0.095 -0.982,0.285c-0.241,0.19 -0.361,0.446 -0.361,0.769c0,0.283 0.079,0.499 0.237,0.647c0.158,0.149 0.453,0.273 0.885,0.373l0.461,0.103c0.608,0.14 1.052,0.36 1.33,0.66c0.278,0.3 0.417,0.709 0.417,1.226c0,0.609 -0.191,1.073 -0.574,1.393c-0.382,0.32 -0.939,0.48 -1.669,0.48c-0.304,0 -0.61,-0.032 -0.918,-0.096c-0.307,-0.065 -0.615,-0.161 -0.926,-0.29l0,-0.921c0.334,0.208 0.649,0.361 0.946,0.458c0.297,0.098 0.596,0.146 0.898,0.146c0.443,0 0.788,-0.098 1.035,-0.293c0.246,-0.196 0.369,-0.47 0.369,-0.821c0,-0.32 -0.085,-0.565 -0.254,-0.733c-0.17,-0.169 -0.465,-0.299 -0.885,-0.39l-0.469,-0.107c-0.603,-0.135 -1.041,-0.338 -1.314,-0.609c-0.272,-0.271 -0.408,-0.636 -0.408,-1.093c0,-0.571 0.195,-1.029 0.585,-1.374c0.389,-0.344 0.908,-0.516 1.554,-0.516c0.249,0 0.512,0.028 0.787,0.084c0.275,0.055 0.565,0.139 0.869,0.25Z" style="fill-rule:nonzero;"/>
        <path d="M26.098,311.464l0,0.386l-3.465,0l0,0.026c-0.023,0.654 0.103,1.124 0.38,1.41c0.277,0.286 0.668,0.428 1.172,0.428c0.255,0 0.522,-0.04 0.8,-0.12c0.278,-0.08 0.575,-0.201 0.891,-0.364l0,0.784c-0.304,0.123 -0.598,0.215 -0.88,0.277c-0.283,0.061 -0.556,0.092 -0.82,0.092c-0.756,0 -1.348,-0.224 -1.774,-0.671c-0.426,-0.447 -0.639,-1.063 -0.639,-1.849c0,-0.766 0.209,-1.377 0.626,-1.835c0.418,-0.457 0.974,-0.685 1.67,-0.685c0.62,0 1.109,0.207 1.467,0.621c0.358,0.414 0.549,0.914 0.572,1.5Zm-0.8,-0.231c-0.035,-0.332 -0.157,-0.618 -0.367,-0.86c-0.211,-0.241 -0.513,-0.362 -0.907,-0.362c-0.385,0 -0.703,0.126 -0.952,0.377c-0.249,0.252 -0.386,0.535 -0.409,0.849l2.635,-0.004Z" style="fill-rule:nonzero;"/>
        <path d="M28.033,311.88c0,0.611 0.098,1.073 0.293,1.384c0.196,0.312 0.486,0.468 0.872,0.468c0.386,0 0.678,-0.157 0.876,-0.47c0.199,-0.313 0.298,-0.773 0.298,-1.382c0,-0.609 -0.099,-1.069 -0.298,-1.382c-0.198,-0.313 -0.49,-0.47 -0.876,-0.47c-0.386,0 -0.676,0.156 -0.872,0.468c-0.195,0.311 -0.293,0.773 -0.293,1.384Zm2.339,1.783c-0.131,0.237 -0.307,0.419 -0.528,0.546c-0.222,0.128 -0.479,0.191 -0.772,0.191c-0.583,0 -1.043,-0.222 -1.381,-0.666c-0.337,-0.445 -0.506,-1.057 -0.506,-1.837c0,-0.794 0.168,-1.416 0.504,-1.864c0.337,-0.449 0.797,-0.673 1.383,-0.673c0.29,0 0.546,0.062 0.767,0.186c0.222,0.125 0.4,0.305 0.533,0.542l0,-0.612l0.804,0l0,6.626l-0.804,0l0,-2.439Z" style="fill-rule:nonzero;"/>
        <path d="M40.685,310.834c0.426,0.112 0.752,0.31 0.978,0.594c0.226,0.284 0.34,0.639 0.34,1.065c0,0.589 -0.201,1.051 -0.603,1.386c-0.401,0.336 -0.957,0.504 -1.667,0.504c-0.299,0 -0.603,-0.027 -0.913,-0.081c-0.31,-0.055 -0.615,-0.133 -0.913,-0.236l0,-0.862c0.295,0.152 0.587,0.265 0.874,0.339c0.287,0.074 0.572,0.111 0.856,0.111c0.481,0 0.851,-0.107 1.109,-0.321c0.258,-0.214 0.387,-0.523 0.387,-0.926c0,-0.371 -0.129,-0.666 -0.387,-0.885c-0.258,-0.218 -0.607,-0.328 -1.048,-0.328l-0.669,0l0,-0.711l0.669,0c0.403,0 0.718,-0.087 0.944,-0.262c0.226,-0.174 0.339,-0.417 0.339,-0.728c0,-0.329 -0.105,-0.581 -0.315,-0.757c-0.211,-0.176 -0.51,-0.263 -0.898,-0.263c-0.258,0 -0.525,0.028 -0.8,0.085c-0.276,0.057 -0.564,0.143 -0.866,0.257l0,-0.797c0.351,-0.091 0.664,-0.16 0.937,-0.205c0.274,-0.046 0.517,-0.069 0.729,-0.069c0.632,0 1.137,0.156 1.515,0.469c0.378,0.313 0.567,0.728 0.567,1.245c0,0.352 -0.099,0.645 -0.298,0.879c-0.198,0.234 -0.487,0.4 -0.867,0.497Z" style="fill-rule:nonzero;"/>
        <path d="M81.882,308.078l0,0.879c-0.267,-0.169 -0.534,-0.296 -0.803,-0.382c-0.268,-0.085 -0.538,-0.128 -0.81,-0.128c-0.415,0 -0.742,0.095 -0.983,0.285c-0.241,0.19 -0.361,0.446 -0.361,0.769c0,0.283 0.079,0.499 0.237,0.647c0.158,0.149 0.453,0.273 0.885,0.373l0.461,0.103c0.608,0.14 1.052,0.36 1.33,0.66c0.278,0.3 0.418,0.709 0.418,1.226c0,0.609 -0.192,1.073 -0.574,1.393c-0.383,0.32 -0.939,0.48 -1.67,0.48c-0.304,0 -0.61,-0.032 -0.917,-0.096c-0.308,-0.065 -0.616,-0.161 -0.926,-0.29l0,-0.921c0.333,0.208 0.648,0.361 0.945,0.458c0.297,0.098 0.597,0.146 0.898,0.146c0.444,0 0.788,-0.098 1.035,-0.293c0.246,-0.196 0.369,-0.47 0.369,-0.821c0,-0.32 -0.084,-0.565 -0.254,-0.733c-0.169,-0.169 -0.464,-0.299 -0.885,-0.39l-0.469,-0.107c-0.603,-0.135 -1.041,-0.338 -1.313,-0.609c-0.273,-0.271 -0.409,-0.636 -0.409,-1.093c0,-0.571 0.195,-1.029 0.585,-1.374c0.39,-0.344 0.908,-0.516 1.554,-0.516c0.249,0 0.512,0.028 0.787,0.084c0.275,0.055 0.565,0.139 0.87,0.25Z" style="fill-rule:nonzero;"/>
        <path d="M87.712,311.464l0,0.386l-3.465,0l0,0.026c-0.023,0.654 0.104,1.124 0.38,1.41c0.277,0.286 0.668,0.428 1.172,0.428c0.255,0 0.522,-0.04 0.8,-0.12c0.278,-0.08 0.575,-0.201 0.891,-0.364l0,0.784c-0.304,0.123 -0.597,0.215 -0.88,0.277c-0.283,0.061 -0.556,0.092 -0.82,0.092c-0.756,0 -1.347,-0.224 -1.774,-0.671c-0.426,-0.447 -0.639,-1.063 -0.639,-1.849c0,-0.766 0.209,-1.377 0.626,-1.835c0.418,-0.457 0.974,-0.685 1.67,-0.685c0.62,0 1.109,0.207 1.467,0.621c0.358,0.414 0.549,0.914 0.572,1.5Zm-0.8,-0.231c-0.035,-0.332 -0.157,-0.618 -0.367,-0.86c-0.21,-0.241 -0.513,-0.362 -0.907,-0.362c-0.385,0 -0.703,0.126 -0.952,0.377c-0.249,0.252 -0.385,0.535 -0.409,0.849l2.635,-0.004Z" style="fill-rule:nonzero;"/>
        <path d="M89.647,311.88c0,0.611 0.098,1.073 0.293,1.384c0.196,0.312 0.487,0.468 0.872,0.468c0.386,0 0.678,-0.157 0.876,-0.47c0.199,-0.313 0.298,-0.773 0.298,-1.382c0,-0.609 -0.099,-1.069 -0.298,-1.382c-0.198,-0.313 -0.49,-0.47 -0.876,-0.47c-0.385,0 -0.676,0.156 -0.872,0.468c-0.195,0.311 -0.293,0.773 -0.293,1.384Zm2.339,1.783c-0.13,0.237 -0.306,0.419 -0.528,0.546c-0.222,0.128 -0.479,0.191 -0.772,0.191c-0.583,0 -1.043,-0.222 -1.38,-0.666c-0.338,-0.445 -0.507,-1.057 -0.507,-1.837c0,-0.794 0.168,-1.416 0.504,-1.864c0.337,-0.449 0.798,-0.673 1.383,-0.673c0.29,0 0.546,0.062 0.767,0.186c0.222,0.125 0.4,0.305 0.533,0.542l0,-0.612l0.804,0l0,6.626l-0.804,0l0,-2.439Z" style="fill-rule:nonzero;"/>
        <path d="M102.121,308.648l-2.048,3.382l2.048,0l0,-3.382Zm-0.143,-0.788l1.017,0l0,4.17l0.865,0l0,0.703l-0.865,0l0,1.526l-0.874,0l0,-1.526l-2.752,0l0,-0.819l2.609,-4.054Z" style="fill-rule:nonzero;"/>
        <path d="M81.98,259.729l0,0.878c-0.267,-0.168 -0.534,-0.295 -0.802,-0.381c-0.268,-0.086 -0.539,-0.129 -0.811,-0.129c-0.415,0 -0.742,0.095 -0.983,0.285c-0.24,0.19 -0.361,0.447 -0.361,0.77c0,0.283 0.079,0.498 0.237,0.647c0.158,0.148 0.453,0.273 0.885,0.373l0.461,0.103c0.609,0.14 1.052,0.36 1.331,0.66c0.278,0.3 0.417,0.708 0.417,1.226c0,0.608 -0.191,1.072 -0.574,1.392c-0.383,0.321 -0.939,0.481 -1.67,0.481c-0.304,0 -0.61,-0.033 -0.917,-0.097c-0.307,-0.064 -0.616,-0.161 -0.926,-0.289l0,-0.922c0.333,0.209 0.648,0.362 0.946,0.459c0.297,0.097 0.596,0.146 0.897,0.146c0.444,0 0.789,-0.098 1.035,-0.294c0.247,-0.196 0.37,-0.469 0.37,-0.821c0,-0.32 -0.085,-0.564 -0.255,-0.733c-0.169,-0.168 -0.464,-0.298 -0.884,-0.39l-0.47,-0.107c-0.603,-0.134 -1.041,-0.337 -1.313,-0.609c-0.272,-0.271 -0.409,-0.635 -0.409,-1.092c0,-0.572 0.195,-1.03 0.585,-1.374c0.39,-0.344 0.908,-0.517 1.554,-0.517c0.25,0 0.512,0.028 0.787,0.084c0.276,0.056 0.566,0.139 0.87,0.251Z" style="fill-rule:nonzero;"/>
        <path d="M87.81,263.115l0,0.385l-3.465,0l0,0.026c-0.023,0.655 0.104,1.125 0.381,1.41c0.276,0.286 0.667,0.429 1.171,0.429c0.255,0 0.522,-0.04 0.8,-0.12c0.279,-0.08 0.576,-0.202 0.892,-0.364l0,0.784c-0.305,0.123 -0.598,0.215 -0.881,0.276c-0.282,0.062 -0.556,0.093 -0.819,0.093c-0.757,0 -1.348,-0.224 -1.774,-0.671c-0.426,-0.447 -0.639,-1.064 -0.639,-1.85c0,-0.765 0.208,-1.377 0.626,-1.834c0.417,-0.457 0.974,-0.686 1.669,-0.686c0.621,0 1.11,0.207 1.468,0.622c0.358,0.414 0.548,0.914 0.571,1.5Zm-0.8,-0.232c-0.034,-0.331 -0.157,-0.618 -0.367,-0.859c-0.21,-0.242 -0.512,-0.362 -0.906,-0.362c-0.386,0 -0.703,0.125 -0.953,0.377c-0.249,0.251 -0.385,0.534 -0.408,0.849l2.634,-0.005Z" style="fill-rule:nonzero;"/>
        <path d="M89.745,263.53c0,0.612 0.098,1.073 0.294,1.385c0.195,0.311 0.486,0.467 0.872,0.467c0.385,0 0.677,-0.156 0.876,-0.469c0.198,-0.313 0.297,-0.774 0.297,-1.383c0,-0.608 -0.099,-1.069 -0.297,-1.382c-0.199,-0.313 -0.491,-0.469 -0.876,-0.469c-0.386,0 -0.677,0.156 -0.872,0.467c-0.196,0.312 -0.294,0.773 -0.294,1.384Zm2.339,1.783c-0.13,0.238 -0.306,0.42 -0.528,0.547c-0.222,0.127 -0.479,0.191 -0.772,0.191c-0.582,0 -1.042,-0.222 -1.38,-0.667c-0.338,-0.444 -0.507,-1.056 -0.507,-1.836c0,-0.795 0.169,-1.416 0.505,-1.865c0.336,-0.448 0.797,-0.673 1.382,-0.673c0.29,0 0.546,0.062 0.768,0.187c0.222,0.124 0.399,0.305 0.532,0.542l0,-0.613l0.805,0l0,6.626l-0.805,0l0,-2.439Z" style="fill-rule:nonzero;"/>
        <path d="M100.645,265.181l2.983,0l0,0.728l-3.943,0l0,-0.728c0.542,-0.563 1.015,-1.06 1.421,-1.492c0.406,-0.431 0.686,-0.736 0.839,-0.913c0.29,-0.348 0.486,-0.631 0.587,-0.846c0.102,-0.216 0.153,-0.437 0.153,-0.663c0,-0.357 -0.107,-0.637 -0.32,-0.84c-0.213,-0.203 -0.505,-0.304 -0.876,-0.304c-0.264,0 -0.541,0.047 -0.831,0.141c-0.289,0.095 -0.597,0.238 -0.921,0.429l0,-0.874c0.298,-0.14 0.592,-0.246 0.88,-0.317c0.289,-0.072 0.573,-0.108 0.855,-0.108c0.634,0 1.145,0.167 1.532,0.5c0.387,0.333 0.581,0.769 0.581,1.309c0,0.274 -0.065,0.549 -0.194,0.823c-0.129,0.274 -0.338,0.577 -0.628,0.909c-0.162,0.185 -0.398,0.443 -0.707,0.771c-0.308,0.329 -0.779,0.82 -1.411,1.475Z" style="fill-rule:nonzero;"/>
        <path d="M24.465,15.578l4.721,0l0,0.913l-3.631,0l0,2.148l3.293,0l0,0.913l-3.293,0l0,4.045l-1.09,0l0,-8.019Z" style="fill-rule:nonzero;"/>
        <path d="M34.53,20.573l-1.251,0c-0.577,0 -1.011,0.101 -1.303,0.303c-0.292,0.203 -0.437,0.504 -0.437,0.905c0,0.362 0.109,0.643 0.327,0.844c0.219,0.2 0.521,0.3 0.908,0.3c0.544,0 0.972,-0.188 1.284,-0.566c0.311,-0.378 0.469,-0.9 0.472,-1.566l0,-0.22Zm0.994,-0.408l0,3.432l-0.994,0l0,-0.892c-0.211,0.358 -0.477,0.622 -0.797,0.792c-0.321,0.171 -0.71,0.256 -1.169,0.256c-0.612,0 -1.101,-0.173 -1.466,-0.519c-0.365,-0.345 -0.548,-0.808 -0.548,-1.388c0,-0.67 0.225,-1.178 0.674,-1.526c0.45,-0.347 1.109,-0.521 1.98,-0.521l1.326,0l0,-0.155c-0.003,-0.48 -0.125,-0.828 -0.365,-1.045c-0.24,-0.217 -0.623,-0.325 -1.149,-0.325c-0.337,0 -0.677,0.048 -1.021,0.145c-0.344,0.097 -0.678,0.238 -1.004,0.424l0,-0.988c0.365,-0.14 0.715,-0.244 1.05,-0.314c0.335,-0.07 0.66,-0.105 0.975,-0.105c0.497,0 0.923,0.074 1.275,0.22c0.353,0.147 0.639,0.367 0.857,0.661c0.136,0.179 0.233,0.4 0.29,0.663c0.057,0.264 0.086,0.658 0.086,1.185Z" style="fill-rule:nonzero;"/>
        <path d="M42.157,23.291c-0.265,0.154 -0.538,0.269 -0.819,0.346c-0.281,0.077 -0.568,0.116 -0.862,0.116c-0.931,0 -1.659,-0.28 -2.183,-0.838c-0.525,-0.559 -0.787,-1.332 -0.787,-2.321c0,-0.988 0.262,-1.761 0.787,-2.32c0.524,-0.559 1.252,-0.838 2.183,-0.838c0.29,0 0.573,0.038 0.849,0.113c0.275,0.075 0.553,0.192 0.832,0.349l0,1.037c-0.261,-0.233 -0.523,-0.401 -0.787,-0.505c-0.263,-0.104 -0.561,-0.156 -0.894,-0.156c-0.619,0 -1.096,0.201 -1.429,0.602c-0.333,0.401 -0.499,0.974 -0.499,1.718c0,0.742 0.167,1.314 0.502,1.716c0.335,0.403 0.81,0.605 1.426,0.605c0.344,0 0.652,-0.053 0.924,-0.159c0.272,-0.105 0.524,-0.269 0.757,-0.491l0,1.026Z" style="fill-rule:nonzero;"/>
        <path d="M46.379,15.873l0,1.708l2.245,0l0,0.768l-2.245,0l0,3.266c0,0.444 0.084,0.754 0.252,0.929c0.169,0.176 0.462,0.263 0.881,0.263l1.112,0l0,0.79l-1.208,0c-0.742,0 -1.264,-0.149 -1.569,-0.446c-0.304,-0.297 -0.456,-0.809 -0.456,-1.536l0,-3.266l-1.606,0l0,-0.768l1.606,0l0,-1.708l0.988,0Z" style="fill-rule:nonzero;"/>
        <path d="M53.012,18.274c-0.501,0 -0.881,0.195 -1.138,0.585c-0.258,0.391 -0.387,0.969 -0.387,1.735c0,0.763 0.129,1.34 0.387,1.733c0.257,0.392 0.637,0.588 1.138,0.588c0.505,0 0.886,-0.196 1.144,-0.588c0.258,-0.393 0.387,-0.97 0.387,-1.733c0,-0.766 -0.129,-1.344 -0.387,-1.735c-0.258,-0.39 -0.639,-0.585 -1.144,-0.585Zm0,-0.838c0.835,0 1.473,0.271 1.915,0.811c0.442,0.541 0.663,1.323 0.663,2.347c0,1.028 -0.22,1.811 -0.66,2.35c-0.441,0.539 -1.08,0.809 -1.918,0.809c-0.834,0 -1.471,-0.27 -1.912,-0.809c-0.44,-0.539 -0.661,-1.322 -0.661,-2.35c0,-1.024 0.221,-1.806 0.661,-2.347c0.441,-0.54 1.078,-0.811 1.912,-0.811Z" style="fill-rule:nonzero;"/>
        <path d="M62.53,18.822c-0.211,-0.165 -0.426,-0.285 -0.645,-0.36c-0.218,-0.075 -0.458,-0.113 -0.719,-0.113c-0.616,0 -1.087,0.194 -1.413,0.58c-0.326,0.387 -0.489,0.946 -0.489,1.676l0,2.992l-0.993,0l0,-6.016l0.993,0l0,1.176c0.165,-0.426 0.418,-0.752 0.76,-0.98c0.342,-0.227 0.748,-0.341 1.217,-0.341c0.243,0 0.471,0.031 0.682,0.091c0.211,0.061 0.413,0.156 0.607,0.285l0,1.01Z" style="fill-rule:nonzero;"/>
        <path d="M67.557,21.663c-0.165,0.419 -0.374,0.971 -0.628,1.655c-0.355,0.945 -0.593,1.521 -0.715,1.729c-0.164,0.279 -0.37,0.489 -0.617,0.628c-0.247,0.14 -0.536,0.21 -0.865,0.21l-0.795,0l0,-0.827l0.585,0c0.291,0 0.518,-0.084 0.683,-0.253c0.164,-0.168 0.374,-0.603 0.628,-1.305l-2.326,-5.919l1.048,0l1.783,4.705l1.756,-4.705l1.048,0l-1.585,4.082Z" style="fill-rule:nonzero;"/>
        <path d="M75.216,19.869l0,3.728l-0.993,0l0,-3.728c0,-0.54 -0.095,-0.938 -0.285,-1.192c-0.19,-0.254 -0.487,-0.381 -0.892,-0.381c-0.462,0 -0.817,0.163 -1.066,0.491c-0.249,0.328 -0.373,0.798 -0.373,1.41l0,3.4l-0.988,0l0,-8.358l0.988,0l0,3.245c0.175,-0.344 0.414,-0.605 0.714,-0.782c0.301,-0.177 0.657,-0.266 1.069,-0.266c0.612,0 1.07,0.202 1.372,0.604c0.303,0.403 0.454,1.013 0.454,1.829Z" style="fill-rule:nonzero;"/>
        <path d="M79.492,15.873l0,1.708l2.245,0l0,0.768l-2.245,0l0,3.266c0,0.444 0.084,0.754 0.252,0.929c0.168,0.176 0.462,0.263 0.881,0.263l1.112,0l0,0.79l-1.209,0c-0.741,0 -1.264,-0.149 -1.568,-0.446c-0.304,-0.297 -0.457,-0.809 -0.457,-1.536l0,-3.266l-1.606,0l0,-0.768l1.606,0l0,-1.708l0.989,0Z" style="fill-rule:nonzero;"/>
        <path d="M88.461,19.869l0,3.728l-0.993,0l0,-3.728c0,-0.54 -0.095,-0.938 -0.285,-1.192c-0.19,-0.254 -0.487,-0.381 -0.891,-0.381c-0.462,0 -0.818,0.163 -1.067,0.491c-0.249,0.328 -0.373,0.798 -0.373,1.41l0,3.4l-0.988,0l0,-8.358l0.988,0l0,3.245c0.176,-0.344 0.414,-0.605 0.714,-0.782c0.301,-0.177 0.657,-0.266 1.069,-0.266c0.613,0 1.07,0.202 1.373,0.604c0.302,0.403 0.453,1.013 0.453,1.829Z" style="fill-rule:nonzero;"/>
        <path d="M93.07,18.193c0.122,-0.257 0.276,-0.448 0.464,-0.572c0.188,-0.123 0.415,-0.185 0.68,-0.185c0.483,0 0.824,0.187 1.023,0.561c0.199,0.375 0.298,1.079 0.298,2.114l0,3.486l-0.902,0l0,-3.443c0,-0.849 -0.048,-1.376 -0.143,-1.582c-0.094,-0.206 -0.267,-0.309 -0.518,-0.309c-0.286,0 -0.482,0.11 -0.588,0.331c-0.106,0.22 -0.158,0.74 -0.158,1.56l0,3.443l-0.903,0l0,-3.443c0,-0.859 -0.051,-1.389 -0.153,-1.59c-0.102,-0.2 -0.285,-0.301 -0.55,-0.301c-0.262,0 -0.443,0.11 -0.546,0.331c-0.102,0.22 -0.153,0.74 -0.153,1.56l0,3.443l-0.897,0l0,-6.016l0.897,0l0,0.516c0.119,-0.215 0.266,-0.379 0.444,-0.492c0.177,-0.112 0.378,-0.169 0.604,-0.169c0.272,0 0.498,0.063 0.679,0.188c0.181,0.125 0.322,0.315 0.422,0.569Z" style="fill-rule:nonzero;"/>
        <path d="M60.025,54.876c0.067,-0.141 0.151,-0.245 0.254,-0.312c0.102,-0.068 0.226,-0.101 0.37,-0.101c0.264,0 0.45,0.102 0.558,0.306c0.109,0.204 0.163,0.588 0.163,1.153l0,1.901l-0.492,0l0,-1.878c0,-0.463 -0.026,-0.75 -0.078,-0.863c-0.052,-0.112 -0.146,-0.168 -0.283,-0.168c-0.156,0 -0.263,0.06 -0.32,0.18c-0.058,0.12 -0.087,0.404 -0.087,0.851l0,1.878l-0.492,0l0,-1.878c0,-0.469 -0.028,-0.758 -0.083,-0.867c-0.056,-0.11 -0.156,-0.164 -0.301,-0.164c-0.142,0 -0.241,0.06 -0.297,0.18c-0.056,0.12 -0.084,0.404 -0.084,0.851l0,1.878l-0.489,0l0,-3.281l0.489,0l0,0.281c0.065,-0.117 0.145,-0.207 0.242,-0.268c0.097,-0.062 0.207,-0.092 0.33,-0.092c0.148,0 0.272,0.034 0.37,0.102c0.099,0.069 0.176,0.172 0.23,0.311Z" style="fill-rule:nonzero;"/>
        <path d="M64.218,56.174l-0.683,0c-0.314,0 -0.551,0.055 -0.71,0.165c-0.16,0.11 -0.239,0.275 -0.239,0.494c0,0.197 0.059,0.35 0.179,0.46c0.119,0.109 0.284,0.164 0.495,0.164c0.297,0 0.53,-0.103 0.7,-0.309c0.17,-0.206 0.256,-0.491 0.258,-0.854l0,-0.12Zm0.542,-0.223l0,1.872l-0.542,0l0,-0.486c-0.116,0.195 -0.261,0.339 -0.435,0.432c-0.175,0.093 -0.388,0.139 -0.638,0.139c-0.334,0 -0.6,-0.094 -0.799,-0.283c-0.2,-0.188 -0.299,-0.441 -0.299,-0.757c0,-0.365 0.122,-0.643 0.367,-0.832c0.246,-0.19 0.605,-0.284 1.08,-0.284l0.724,0l0,-0.085c-0.002,-0.262 -0.069,-0.452 -0.2,-0.57c-0.13,-0.118 -0.339,-0.177 -0.627,-0.177c-0.183,0 -0.369,0.026 -0.556,0.079c-0.188,0.052 -0.37,0.13 -0.548,0.231l0,-0.539c0.199,-0.076 0.39,-0.133 0.573,-0.171c0.182,-0.038 0.36,-0.057 0.531,-0.057c0.272,0 0.504,0.04 0.696,0.12c0.193,0.08 0.348,0.2 0.468,0.36c0.074,0.098 0.127,0.218 0.158,0.362c0.031,0.143 0.047,0.359 0.047,0.646Z" style="fill-rule:nonzero;"/>
        <path d="M66.195,54.553l1.38,0l0,2.851l1.069,0l0,0.419l-2.677,0l0,-0.419l1.069,0l0,-2.432l-0.841,0l0,-0.419Zm0.841,-1.274l0.539,0l0,0.68l-0.539,0l0,-0.68Z" style="fill-rule:nonzero;"/>
        <path d="M71.961,55.79l0,2.033l-0.542,0l0,-2.033c0,-0.295 -0.052,-0.512 -0.155,-0.651c-0.104,-0.138 -0.266,-0.208 -0.487,-0.208c-0.252,0 -0.446,0.09 -0.581,0.268c-0.136,0.179 -0.204,0.436 -0.204,0.769l0,1.855l-0.539,0l0,-3.281l0.539,0l0,0.492c0.096,-0.188 0.226,-0.33 0.39,-0.426c0.164,-0.097 0.358,-0.145 0.583,-0.145c0.334,0 0.583,0.109 0.748,0.329c0.165,0.22 0.248,0.552 0.248,0.998Z" style="fill-rule:nonzero;"/>
        <path d="M60.769,121.783l0,0.527c-0.154,-0.09 -0.309,-0.157 -0.465,-0.202c-0.157,-0.045 -0.316,-0.068 -0.478,-0.068c-0.244,0 -0.426,0.04 -0.546,0.119c-0.12,0.079 -0.181,0.2 -0.181,0.362c0,0.146 0.045,0.256 0.135,0.328c0.09,0.072 0.314,0.143 0.671,0.211l0.217,0.041c0.268,0.051 0.47,0.152 0.608,0.305c0.138,0.152 0.206,0.35 0.206,0.594c0,0.325 -0.115,0.578 -0.345,0.761c-0.231,0.182 -0.551,0.274 -0.961,0.274c-0.162,0 -0.332,-0.018 -0.51,-0.052c-0.178,-0.034 -0.37,-0.085 -0.577,-0.154l0,-0.556c0.201,0.103 0.393,0.181 0.577,0.233c0.184,0.052 0.357,0.077 0.521,0.077c0.239,0 0.423,-0.048 0.554,-0.145c0.131,-0.096 0.196,-0.232 0.196,-0.405c0,-0.25 -0.239,-0.423 -0.717,-0.519l-0.024,-0.006l-0.202,-0.041c-0.31,-0.06 -0.537,-0.162 -0.68,-0.306c-0.142,-0.144 -0.213,-0.339 -0.213,-0.587c0,-0.315 0.106,-0.557 0.319,-0.728c0.213,-0.171 0.517,-0.257 0.911,-0.257c0.176,0 0.345,0.016 0.507,0.049c0.162,0.032 0.321,0.08 0.477,0.145Z" style="fill-rule:nonzero;"/>
        <path d="M64.812,123.039l0,0.264l-2.335,0l0,0.018c-0.015,0.447 0.07,0.768 0.257,0.964c0.186,0.195 0.449,0.293 0.789,0.293c0.172,0 0.352,-0.028 0.539,-0.082c0.188,-0.055 0.388,-0.138 0.601,-0.25l0,0.537c-0.205,0.084 -0.403,0.147 -0.593,0.189c-0.191,0.042 -0.375,0.063 -0.553,0.063c-0.509,0 -0.908,-0.153 -1.195,-0.459c-0.287,-0.306 -0.431,-0.727 -0.431,-1.264c0,-0.524 0.141,-0.941 0.422,-1.254c0.282,-0.312 0.657,-0.469 1.125,-0.469c0.418,0 0.748,0.142 0.989,0.425c0.241,0.283 0.37,0.625 0.385,1.025Zm-0.539,-0.158c-0.023,-0.226 -0.106,-0.422 -0.247,-0.587c-0.142,-0.165 -0.345,-0.248 -0.611,-0.248c-0.26,0 -0.474,0.086 -0.642,0.258c-0.168,0.172 -0.259,0.365 -0.275,0.58l1.775,-0.003Z" style="fill-rule:nonzero;"/>
        <path d="M66.116,123.324c0,0.418 0.066,0.733 0.198,0.946c0.132,0.213 0.327,0.319 0.587,0.319c0.26,0 0.457,-0.107 0.591,-0.321c0.133,-0.213 0.2,-0.528 0.2,-0.944c0,-0.416 -0.067,-0.731 -0.2,-0.945c-0.134,-0.214 -0.331,-0.321 -0.591,-0.321c-0.26,0 -0.455,0.106 -0.587,0.319c-0.132,0.213 -0.198,0.529 -0.198,0.947Zm1.576,1.218c-0.088,0.162 -0.206,0.287 -0.356,0.374c-0.149,0.087 -0.322,0.13 -0.52,0.13c-0.392,0 -0.702,-0.152 -0.93,-0.455c-0.227,-0.304 -0.341,-0.722 -0.341,-1.256c0,-0.543 0.113,-0.967 0.34,-1.274c0.226,-0.307 0.537,-0.46 0.931,-0.46c0.196,0 0.368,0.042 0.517,0.127c0.15,0.085 0.269,0.209 0.359,0.371l0,-0.419l0.542,0l0,4.529l-0.542,0l0,-1.667Z" style="fill-rule:nonzero;"/>
        <path d="M69.849,124.452l2.009,0l0,0.498l-2.657,0l0,-0.498c0.365,-0.385 0.685,-0.725 0.958,-1.02c0.274,-0.295 0.462,-0.503 0.565,-0.624c0.196,-0.238 0.328,-0.431 0.396,-0.579c0.068,-0.147 0.103,-0.298 0.103,-0.452c0,-0.244 -0.072,-0.436 -0.216,-0.574c-0.143,-0.139 -0.34,-0.208 -0.59,-0.208c-0.178,0 -0.364,0.032 -0.56,0.096c-0.195,0.065 -0.402,0.162 -0.621,0.293l0,-0.597c0.201,-0.096 0.399,-0.168 0.593,-0.217c0.195,-0.049 0.387,-0.074 0.576,-0.074c0.428,0 0.772,0.114 1.033,0.342c0.261,0.227 0.391,0.526 0.391,0.895c0,0.187 -0.043,0.375 -0.13,0.562c-0.087,0.188 -0.228,0.395 -0.424,0.621c-0.109,0.127 -0.268,0.303 -0.476,0.528c-0.208,0.224 -0.525,0.56 -0.95,1.008Z" style="fill-rule:nonzero;"/>
        <path d="M60.813,204.926l0,0.528c-0.154,-0.09 -0.309,-0.157 -0.465,-0.202c-0.157,-0.045 -0.316,-0.068 -0.478,-0.068c-0.244,0 -0.426,0.04 -0.546,0.119c-0.121,0.079 -0.181,0.2 -0.181,0.362c0,0.146 0.045,0.256 0.135,0.328c0.09,0.072 0.314,0.142 0.671,0.211l0.217,0.041c0.267,0.051 0.47,0.152 0.608,0.305c0.138,0.152 0.206,0.35 0.206,0.594c0,0.324 -0.115,0.578 -0.345,0.761c-0.231,0.182 -0.551,0.273 -0.961,0.273c-0.162,0 -0.332,-0.017 -0.51,-0.051c-0.178,-0.034 -0.37,-0.085 -0.577,-0.154l0,-0.556c0.201,0.103 0.393,0.181 0.577,0.233c0.184,0.051 0.357,0.077 0.521,0.077c0.239,0 0.423,-0.048 0.554,-0.145c0.131,-0.096 0.196,-0.232 0.196,-0.406c0,-0.25 -0.239,-0.422 -0.717,-0.518l-0.024,-0.006l-0.202,-0.041c-0.31,-0.06 -0.537,-0.163 -0.68,-0.306c-0.142,-0.144 -0.213,-0.339 -0.213,-0.587c0,-0.315 0.106,-0.558 0.319,-0.729c0.213,-0.17 0.516,-0.256 0.911,-0.256c0.176,0 0.345,0.016 0.507,0.048c0.162,0.033 0.321,0.081 0.477,0.145Z" style="fill-rule:nonzero;"/>
        <path d="M64.856,206.183l0,0.264l-2.335,0l0,0.018c-0.015,0.447 0.07,0.768 0.257,0.963c0.186,0.196 0.449,0.293 0.789,0.293c0.172,0 0.352,-0.027 0.539,-0.082c0.188,-0.054 0.388,-0.137 0.601,-0.249l0,0.536c-0.205,0.084 -0.403,0.147 -0.593,0.189c-0.191,0.042 -0.375,0.063 -0.553,0.063c-0.509,0 -0.908,-0.152 -1.195,-0.458c-0.287,-0.306 -0.431,-0.727 -0.431,-1.264c0,-0.524 0.141,-0.942 0.422,-1.254c0.282,-0.313 0.657,-0.469 1.125,-0.469c0.418,0 0.748,0.142 0.989,0.425c0.241,0.283 0.37,0.625 0.385,1.025Zm-0.539,-0.158c-0.023,-0.226 -0.106,-0.422 -0.247,-0.587c-0.142,-0.165 -0.346,-0.248 -0.611,-0.248c-0.26,0 -0.474,0.086 -0.642,0.258c-0.168,0.172 -0.259,0.365 -0.275,0.58l1.775,-0.003Z" style="fill-rule:nonzero;"/>
        <path d="M66.16,206.468c0,0.417 0.066,0.733 0.198,0.946c0.132,0.213 0.327,0.319 0.587,0.319c0.26,0 0.457,-0.107 0.591,-0.321c0.133,-0.214 0.2,-0.528 0.2,-0.944c0,-0.417 -0.067,-0.731 -0.2,-0.945c-0.134,-0.214 -0.331,-0.321 -0.591,-0.321c-0.26,0 -0.455,0.106 -0.587,0.319c-0.132,0.213 -0.198,0.529 -0.198,0.947Zm1.576,1.218c-0.088,0.162 -0.206,0.287 -0.356,0.374c-0.149,0.087 -0.322,0.13 -0.52,0.13c-0.392,0 -0.702,-0.152 -0.93,-0.455c-0.227,-0.304 -0.341,-0.723 -0.341,-1.256c0,-0.543 0.113,-0.968 0.34,-1.274c0.226,-0.307 0.537,-0.46 0.931,-0.46c0.196,0 0.368,0.042 0.517,0.127c0.15,0.085 0.269,0.209 0.359,0.371l0,-0.419l0.542,0l0,4.529l-0.542,0l0,-1.667Z" style="fill-rule:nonzero;"/>
        <path d="M70.953,204.259l-1.38,2.311l1.38,0l0,-2.311Zm-0.097,-0.54l0.686,0l0,2.851l0.583,0l0,0.481l-0.583,0l0,1.042l-0.589,0l0,-1.042l-1.854,0l0,-0.56l1.757,-2.772Z" style="fill-rule:nonzero;"/>
        <path d="M60.872,163.26l0,0.527c-0.154,-0.09 -0.31,-0.157 -0.466,-0.202c-0.156,-0.045 -0.315,-0.067 -0.477,-0.067c-0.245,0 -0.427,0.039 -0.547,0.118c-0.12,0.079 -0.18,0.2 -0.18,0.362c0,0.147 0.045,0.256 0.135,0.328c0.09,0.073 0.313,0.143 0.671,0.211l0.216,0.041c0.268,0.051 0.471,0.153 0.608,0.305c0.138,0.152 0.207,0.351 0.207,0.595c0,0.324 -0.115,0.577 -0.346,0.76c-0.23,0.183 -0.551,0.274 -0.961,0.274c-0.162,0 -0.332,-0.017 -0.509,-0.051c-0.178,-0.035 -0.371,-0.086 -0.578,-0.154l0,-0.557c0.202,0.104 0.394,0.181 0.578,0.233c0.183,0.052 0.357,0.078 0.521,0.078c0.238,0 0.423,-0.049 0.554,-0.145c0.131,-0.097 0.196,-0.232 0.196,-0.406c0,-0.25 -0.239,-0.423 -0.718,-0.519l-0.023,-0.006l-0.202,-0.041c-0.311,-0.06 -0.537,-0.162 -0.68,-0.306c-0.143,-0.143 -0.214,-0.339 -0.214,-0.587c0,-0.315 0.107,-0.557 0.319,-0.728c0.213,-0.171 0.517,-0.256 0.912,-0.256c0.175,0 0.344,0.016 0.506,0.048c0.163,0.032 0.322,0.08 0.478,0.145Z" style="fill-rule:nonzero;"/>
        <path d="M64.915,164.517l0,0.263l-2.335,0l0,0.018c-0.016,0.447 0.07,0.769 0.256,0.964c0.187,0.195 0.45,0.293 0.79,0.293c0.172,0 0.351,-0.028 0.539,-0.082c0.187,-0.055 0.388,-0.138 0.601,-0.249l0,0.536c-0.206,0.084 -0.403,0.147 -0.594,0.189c-0.19,0.042 -0.374,0.063 -0.552,0.063c-0.51,0 -0.908,-0.153 -1.195,-0.459c-0.287,-0.305 -0.431,-0.727 -0.431,-1.264c0,-0.523 0.141,-0.941 0.422,-1.254c0.281,-0.312 0.656,-0.468 1.125,-0.468c0.418,0 0.747,0.141 0.989,0.424c0.241,0.284 0.369,0.625 0.385,1.026Zm-0.539,-0.158c-0.024,-0.227 -0.106,-0.423 -0.248,-0.588c-0.141,-0.165 -0.345,-0.247 -0.611,-0.247c-0.259,0 -0.473,0.086 -0.641,0.257c-0.168,0.172 -0.26,0.366 -0.276,0.58l1.776,-0.002Z" style="fill-rule:nonzero;"/>
        <path d="M66.219,164.801c0,0.418 0.066,0.733 0.197,0.946c0.132,0.213 0.328,0.32 0.588,0.32c0.26,0 0.456,-0.107 0.59,-0.321c0.134,-0.214 0.201,-0.529 0.201,-0.945c0,-0.416 -0.067,-0.731 -0.201,-0.945c-0.134,-0.214 -0.33,-0.321 -0.59,-0.321c-0.26,0 -0.456,0.107 -0.588,0.32c-0.131,0.213 -0.197,0.528 -0.197,0.946Zm1.576,1.219c-0.088,0.162 -0.207,0.286 -0.356,0.373c-0.15,0.087 -0.323,0.131 -0.52,0.131c-0.393,0 -0.703,-0.152 -0.93,-0.456c-0.228,-0.304 -0.342,-0.722 -0.342,-1.255c0,-0.543 0.114,-0.968 0.34,-1.275c0.227,-0.306 0.537,-0.46 0.932,-0.46c0.195,0 0.368,0.043 0.517,0.128c0.149,0.085 0.269,0.208 0.359,0.37l0,-0.419l0.542,0l0,4.53l-0.542,0l0,-1.667Z" style="fill-rule:nonzero;"/>
        <path d="M71.132,164.086c0.287,0.076 0.507,0.211 0.659,0.406c0.152,0.194 0.228,0.437 0.228,0.728c0,0.402 -0.135,0.718 -0.405,0.948c-0.271,0.229 -0.645,0.344 -1.124,0.344c-0.201,0 -0.406,-0.019 -0.615,-0.056c-0.209,-0.037 -0.414,-0.091 -0.615,-0.161l0,-0.589c0.199,0.104 0.395,0.181 0.589,0.232c0.193,0.05 0.385,0.076 0.577,0.076c0.324,0 0.573,-0.073 0.747,-0.22c0.174,-0.146 0.26,-0.357 0.26,-0.633c0,-0.254 -0.086,-0.455 -0.26,-0.605c-0.174,-0.149 -0.409,-0.224 -0.706,-0.224l-0.451,0l0,-0.486l0.451,0c0.271,0 0.483,-0.06 0.635,-0.179c0.153,-0.119 0.229,-0.285 0.229,-0.498c0,-0.225 -0.071,-0.397 -0.212,-0.517c-0.142,-0.12 -0.344,-0.18 -0.605,-0.18c-0.174,0 -0.354,0.019 -0.54,0.058c-0.185,0.039 -0.379,0.098 -0.583,0.176l0,-0.545c0.237,-0.062 0.447,-0.109 0.632,-0.14c0.184,-0.032 0.348,-0.047 0.491,-0.047c0.425,0 0.766,0.107 1.021,0.321c0.254,0.213 0.382,0.497 0.382,0.851c0,0.24 -0.067,0.44 -0.201,0.6c-0.134,0.16 -0.328,0.274 -0.584,0.34Z" style="fill-rule:nonzero;"/>
    </g>
</svg>
