<?xml version="1.0" encoding="UTF-8" standalone="no"?>
<!DOCTYPE svg PUBLIC "-//W3C//DTD SVG 1.1//EN" "http://www.w3.org/Graphics/SVG/1.1/DTD/svg11.dtd">
<svg width="120" height="380" version="1.1" xmlns="http://www.w3.org/2000/svg" xmlns:xlink="http://www.w3.org/1999/xlink" xml:space="preserve" xmlns:serif="http://www.serif.com/" style="fill-rule:evenodd;clip-rule:evenodd;stroke-linejoin:round;stroke-miterlimit:2;">
    <rect x="0" y="0" width="120" height="380" style="fill:rgb(81,81,81);"/>
    <g id="Layer-1" serif:id="Layer 1">
        <g id="text12">
            <path id="path262" d="M31.82,10.256l0,4.744l-1.265,0l0,-4.744c0,-0.688 -0.121,-1.194 -0.362,-1.518c-0.242,-0.323 -0.62,-0.485 -1.135,-0.485c-0.588,0 -1.041,0.21 -1.36,0.629c-0.315,0.415 -0.472,1.012 -0.472,1.791l0,4.327l-1.258,0l0,-7.656l1.258,0l0,1.148c0.223,-0.437 0.526,-0.768 0.909,-0.991c0.383,-0.228 0.836,-0.342 1.36,-0.342c0.78,0 1.361,0.258 1.744,0.773c0.387,0.51 0.581,1.285 0.581,2.324Z" style="fill-rule:nonzero;"/>
            <path id="path264" d="M34.39,12.102l0,-4.745l1.258,0l0,4.745c0,0.688 0.121,1.194 0.362,1.517c0.246,0.324 0.624,0.485 1.135,0.485c0.592,0 1.046,-0.207 1.36,-0.622c0.315,-0.419 0.472,-1.018 0.472,-1.797l0,-4.328l1.264,0l0,7.643l-1.264,0l0,-1.148c-0.223,0.442 -0.529,0.777 -0.916,1.004c-0.383,0.228 -0.832,0.342 -1.347,0.342c-0.784,0 -1.367,-0.255 -1.75,-0.765c-0.383,-0.515 -0.574,-1.292 -0.574,-2.331Z" style="fill-rule:nonzero;"/>
            <path id="path266" d="M46.1,8.123c0.155,-0.328 0.351,-0.57 0.588,-0.725c0.241,-0.159 0.531,-0.239 0.868,-0.239c0.615,0 1.048,0.239 1.299,0.718c0.255,0.474 0.383,1.369 0.383,2.686l0,4.437l-1.149,0l0,-4.382c0,-1.08 -0.061,-1.75 -0.184,-2.01c-0.119,-0.264 -0.338,-0.396 -0.657,-0.396c-0.364,0 -0.615,0.141 -0.752,0.424c-0.132,0.278 -0.198,0.939 -0.198,1.982l0,4.382l-1.148,0l0,-4.382c0,-1.094 -0.066,-1.768 -0.199,-2.023c-0.127,-0.255 -0.36,-0.383 -0.697,-0.383c-0.332,0 -0.565,0.141 -0.697,0.424c-0.128,0.278 -0.191,0.939 -0.191,1.982l0,4.382l-1.142,0l0,-7.656l1.142,0l0,0.656c0.15,-0.273 0.337,-0.481 0.56,-0.622c0.228,-0.146 0.485,-0.219 0.773,-0.219c0.346,0 0.633,0.08 0.861,0.239c0.232,0.16 0.412,0.401 0.54,0.725Z" style="fill-rule:nonzero;"/>
            <path id="path268" d="M57.557,10.543l0,0.615l-5.448,0l0,0.041c-0.037,1.044 0.161,1.794 0.594,2.249c0.438,0.456 1.053,0.684 1.846,0.684c0.401,0 0.82,-0.064 1.258,-0.192c0.437,-0.127 0.905,-0.321 1.401,-0.581l0,1.251c-0.478,0.196 -0.941,0.342 -1.387,0.438c-0.442,0.1 -0.871,0.15 -1.286,0.15c-1.189,0 -2.119,-0.355 -2.789,-1.066c-0.67,-0.716 -1.005,-1.7 -1.005,-2.953c0,-1.222 0.329,-2.197 0.985,-2.926c0.656,-0.729 1.531,-1.094 2.625,-1.094c0.975,0 1.743,0.331 2.304,0.991c0.565,0.661 0.865,1.459 0.902,2.393Zm-1.258,-0.369c-0.055,-0.529 -0.248,-0.985 -0.581,-1.367c-0.328,-0.388 -0.802,-0.581 -1.422,-0.581c-0.606,0 -1.105,0.2 -1.497,0.601c-0.392,0.401 -0.606,0.852 -0.642,1.354l4.142,-0.007Z" style="fill-rule:nonzero;"/>
            <path id="path270" d="M66.218,8.923c-0.269,-0.21 -0.542,-0.362 -0.82,-0.458c-0.278,-0.096 -0.584,-0.144 -0.916,-0.144c-0.784,0 -1.383,0.246 -1.798,0.739c-0.415,0.492 -0.622,1.203 -0.622,2.132l0,3.808l-1.265,0l0,-7.656l1.265,0l0,1.497c0.209,-0.542 0.531,-0.957 0.964,-1.244c0.437,-0.292 0.954,-0.438 1.551,-0.438c0.31,0 0.6,0.039 0.869,0.116c0.268,0.078 0.526,0.199 0.772,0.363l0,1.285Z" style="fill-rule:nonzero;"/>
            <path id="path272" d="M68.905,7.371l3.219,0l0,6.651l2.495,0l0,0.978l-6.248,0l0,-0.978l2.496,0l0,-5.673l-1.962,0l0,-0.978Zm1.962,-2.974l1.257,0l0,1.586l-1.257,0l0,-1.586Z" style="fill-rule:nonzero;"/>
            <path id="path274" d="M82.419,14.61c-0.337,0.196 -0.686,0.342 -1.046,0.438c-0.355,0.1 -0.72,0.15 -1.093,0.15c-1.185,0 -2.113,-0.355 -2.783,-1.066c-0.665,-0.711 -0.998,-1.695 -0.998,-2.953c0,-1.258 0.333,-2.242 0.998,-2.953c0.67,-0.711 1.598,-1.067 2.783,-1.067c0.369,0 0.729,0.048 1.08,0.144c0.351,0.095 0.704,0.244 1.059,0.444l0,1.319c-0.332,-0.296 -0.667,-0.51 -1.005,-0.642c-0.332,-0.132 -0.711,-0.198 -1.134,-0.198c-0.789,0 -1.395,0.255 -1.819,0.765c-0.424,0.511 -0.636,1.24 -0.636,2.188c0,0.943 0.212,1.672 0.636,2.187c0.429,0.511 1.035,0.766 1.819,0.766c0.437,0 0.829,-0.066 1.175,-0.198c0.347,-0.137 0.668,-0.347 0.964,-0.629l0,1.305Z" style="fill-rule:nonzero;"/>
            <path id="path276" d="M24.109,26.809c-0.269,-0.21 -0.543,-0.363 -0.821,-0.458c-0.278,-0.096 -0.583,-0.144 -0.916,-0.144c-0.784,0 -1.383,0.246 -1.797,0.738c-0.415,0.493 -0.623,1.204 -0.623,2.133l0,3.808l-1.264,0l0,-7.656l1.264,0l0,1.497c0.21,-0.543 0.531,-0.957 0.964,-1.244c0.438,-0.292 0.955,-0.438 1.552,-0.438c0.31,0 0.599,0.039 0.868,0.116c0.269,0.078 0.527,0.199 0.773,0.363l0,1.285Z" style="fill-rule:nonzero;"/>
            <path id="path278" d="M32.291,28.429l0,0.615l-5.448,0l0,0.041c-0.036,1.044 0.162,1.793 0.595,2.249c0.437,0.456 1.053,0.684 1.845,0.684c0.402,0 0.821,-0.064 1.258,-0.192c0.438,-0.127 0.905,-0.321 1.402,-0.581l0,1.251c-0.479,0.196 -0.941,0.342 -1.388,0.438c-0.442,0.1 -0.87,0.15 -1.285,0.15c-1.19,0 -2.119,-0.355 -2.789,-1.066c-0.67,-0.716 -1.005,-1.7 -1.005,-2.953c0,-1.222 0.328,-2.197 0.984,-2.926c0.656,-0.729 1.531,-1.094 2.625,-1.094c0.976,0 1.743,0.33 2.304,0.991c0.565,0.661 0.866,1.459 0.902,2.393Zm-1.258,-0.369c-0.054,-0.529 -0.248,-0.985 -0.581,-1.367c-0.328,-0.388 -0.802,-0.582 -1.421,-0.582c-0.607,0 -1.106,0.201 -1.498,0.602c-0.391,0.401 -0.606,0.852 -0.642,1.354l4.142,-0.007Z" style="fill-rule:nonzero;"/>
            <path id="path280" d="M35.62,31.922l0,3.876l-1.264,0l0,-10.568l1.264,0l0,0.977c0.21,-0.378 0.488,-0.665 0.834,-0.861c0.351,-0.201 0.755,-0.301 1.21,-0.301c0.925,0 1.65,0.358 2.174,1.073c0.529,0.716 0.793,1.707 0.793,2.974c0,1.244 -0.264,2.222 -0.793,2.933c-0.528,0.706 -1.253,1.059 -2.174,1.059c-0.464,0 -0.872,-0.098 -1.223,-0.294c-0.347,-0.2 -0.62,-0.49 -0.821,-0.868Zm3.692,-2.857c0,-0.976 -0.155,-1.712 -0.465,-2.208c-0.305,-0.497 -0.761,-0.746 -1.367,-0.746c-0.611,0 -1.073,0.251 -1.388,0.752c-0.314,0.497 -0.472,1.231 -0.472,2.202c0,0.966 0.158,1.699 0.472,2.201c0.315,0.501 0.777,0.752 1.388,0.752c0.606,0 1.062,-0.249 1.367,-0.745c0.31,-0.497 0.465,-1.233 0.465,-2.208Z" style="fill-rule:nonzero;"/>
            <path id="path282" d="M49.135,28.429l0,0.615l-5.448,0l0,0.041c-0.037,1.044 0.162,1.793 0.595,2.249c0.437,0.456 1.052,0.684 1.845,0.684c0.401,0 0.821,-0.064 1.258,-0.192c0.438,-0.127 0.905,-0.321 1.401,-0.581l0,1.251c-0.478,0.196 -0.941,0.342 -1.387,0.438c-0.442,0.1 -0.871,0.15 -1.285,0.15c-1.19,0 -2.12,-0.355 -2.789,-1.066c-0.67,-0.716 -1.005,-1.7 -1.005,-2.953c0,-1.222 0.328,-2.197 0.984,-2.926c0.656,-0.729 1.531,-1.094 2.625,-1.094c0.975,0 1.743,0.33 2.304,0.991c0.565,0.661 0.866,1.459 0.902,2.393Zm-1.258,-0.369c-0.054,-0.529 -0.248,-0.985 -0.581,-1.367c-0.328,-0.388 -0.802,-0.582 -1.422,-0.582c-0.606,0 -1.105,0.201 -1.497,0.602c-0.392,0.401 -0.606,0.852 -0.642,1.354l4.142,-0.007Z" style="fill-rule:nonzero;"/>
            <path id="path284" d="M54.098,23.056l0,2.174l2.857,0l0,0.977l-2.857,0l0,4.156c0,0.566 0.107,0.96 0.321,1.183c0.214,0.223 0.588,0.335 1.121,0.335l1.415,0l0,1.005l-1.538,0c-0.943,0 -1.608,-0.189 -1.996,-0.567c-0.387,-0.379 -0.581,-1.03 -0.581,-1.956l0,-4.156l-2.044,0l0,-0.977l2.044,0l0,-2.174l1.258,0Z" style="fill-rule:nonzero;"/>
            <path id="path286" d="M60.483,25.257l3.219,0l0,6.651l2.496,0l0,0.978l-6.248,0l0,-0.978l2.495,0l0,-5.673l-1.962,0l0,-0.978Zm1.962,-2.974l1.257,0l0,1.586l-1.257,0l0,-1.586Z" style="fill-rule:nonzero;"/>
            <path id="path288" d="M70.942,23.056l0,2.174l2.857,0l0,0.977l-2.857,0l0,4.156c0,0.566 0.107,0.96 0.321,1.183c0.214,0.223 0.588,0.335 1.121,0.335l1.415,0l0,1.005l-1.538,0c-0.943,0 -1.609,-0.189 -1.996,-0.567c-0.387,-0.379 -0.581,-1.03 -0.581,-1.956l0,-4.156l-2.044,0l0,-0.977l2.044,0l0,-2.174l1.258,0Z" style="fill-rule:nonzero;"/>
            <path id="path290" d="M79.377,26.111c-0.638,0 -1.121,0.249 -1.449,0.746c-0.328,0.496 -0.492,1.232 -0.492,2.208c0,0.97 0.164,1.706 0.492,2.208c0.328,0.496 0.811,0.745 1.449,0.745c0.643,0 1.128,-0.249 1.456,-0.745c0.328,-0.502 0.492,-1.238 0.492,-2.208c0,-0.976 -0.164,-1.712 -0.492,-2.208c-0.328,-0.497 -0.813,-0.746 -1.456,-0.746Zm0,-1.066c1.062,0 1.873,0.344 2.434,1.032c0.565,0.688 0.848,1.684 0.848,2.988c0,1.308 -0.281,2.306 -0.841,2.994c-0.561,0.683 -1.374,1.025 -2.441,1.025c-1.062,0 -1.873,-0.342 -2.433,-1.025c-0.561,-0.688 -0.841,-1.686 -0.841,-2.994c0,-1.304 0.28,-2.3 0.841,-2.988c0.56,-0.688 1.371,-1.032 2.433,-1.032Z" style="fill-rule:nonzero;"/>
            <path id="path292" d="M91.484,26.809c-0.269,-0.21 -0.543,-0.363 -0.821,-0.458c-0.278,-0.096 -0.583,-0.144 -0.916,-0.144c-0.783,0 -1.383,0.246 -1.797,0.738c-0.415,0.493 -0.623,1.204 -0.623,2.133l0,3.808l-1.264,0l0,-7.656l1.264,0l0,1.497c0.21,-0.543 0.531,-0.957 0.964,-1.244c0.438,-0.292 0.955,-0.438 1.552,-0.438c0.31,0 0.599,0.039 0.868,0.116c0.269,0.078 0.527,0.199 0.773,0.363l0,1.285Z" style="fill-rule:nonzero;"/>
        </g>
        <path d="M10.58,350.721l0,-6.442l2.417,0c0.492,0 0.887,0.065 1.184,0.196c0.297,0.13 0.53,0.331 0.699,0.602c0.168,0.271 0.252,0.554 0.252,0.85c0,0.275 -0.074,0.535 -0.224,0.778c-0.149,0.243 -0.375,0.439 -0.677,0.589c0.39,0.114 0.69,0.309 0.899,0.584c0.21,0.275 0.314,0.601 0.314,0.976c0,0.301 -0.063,0.582 -0.191,0.841c-0.127,0.259 -0.285,0.459 -0.472,0.6c-0.188,0.141 -0.423,0.247 -0.706,0.319c-0.282,0.071 -0.629,0.107 -1.039,0.107l-2.456,0Zm0.852,-3.735l1.393,0c0.378,0 0.649,-0.025 0.813,-0.075c0.217,-0.064 0.38,-0.171 0.49,-0.321c0.11,-0.149 0.165,-0.336 0.165,-0.562c0,-0.214 -0.051,-0.402 -0.154,-0.565c-0.102,-0.162 -0.249,-0.274 -0.439,-0.334c-0.191,-0.06 -0.517,-0.09 -0.98,-0.09l-1.288,0l0,1.947Zm0,2.975l1.604,0c0.275,0 0.469,-0.01 0.58,-0.031c0.196,-0.035 0.361,-0.093 0.492,-0.175c0.132,-0.083 0.241,-0.202 0.326,-0.359c0.085,-0.156 0.127,-0.337 0.127,-0.542c0,-0.241 -0.062,-0.449 -0.185,-0.627c-0.123,-0.177 -0.293,-0.301 -0.512,-0.373c-0.218,-0.072 -0.532,-0.108 -0.942,-0.108l-1.49,0l0,2.215Z" style="fill-rule:nonzero;"/>
        <path d="M16.635,350.721l0,-6.442l4.658,0l0,0.76l-3.805,0l0,1.973l3.564,0l0,0.756l-3.564,0l0,2.193l3.955,0l0,0.76l-4.808,0Z" style="fill-rule:nonzero;"/>
        <path d="M21.913,350.721l2.474,-6.442l0.919,0l2.636,6.442l-0.971,0l-0.751,-1.951l-2.694,0l-0.708,1.951l-0.905,0Zm1.859,-2.645l2.184,0l-0.672,-1.784c-0.205,-0.542 -0.358,-0.988 -0.457,-1.336c-0.082,0.413 -0.198,0.823 -0.348,1.23l-0.707,1.89Z" style="fill-rule:nonzero;"/>
        <path d="M29.595,350.721l0,-5.682l-2.123,0l0,-0.76l5.107,0l0,0.76l-2.132,0l0,5.682l-0.852,0Z" style="fill-rule:nonzero;"/>
        <path d="M82.345,232.367l0,-5.727l2.16,0c0.38,0 0.671,0.018 0.871,0.055c0.281,0.047 0.517,0.136 0.707,0.267c0.19,0.132 0.343,0.316 0.459,0.553c0.116,0.237 0.174,0.497 0.174,0.781c0,0.487 -0.155,0.899 -0.465,1.237c-0.31,0.337 -0.87,0.505 -1.68,0.505l-1.468,0l0,2.329l-0.758,0Zm0.758,-3.004l1.48,0c0.49,0 0.837,-0.092 1.043,-0.274c0.206,-0.182 0.309,-0.439 0.309,-0.769c0,-0.24 -0.061,-0.445 -0.182,-0.616c-0.121,-0.17 -0.281,-0.283 -0.478,-0.337c-0.128,-0.034 -0.364,-0.051 -0.707,-0.051l-1.465,0l0,2.047Z" style="fill-rule:nonzero;"/>
        <path d="M87.693,232.367l0,-5.727l2.539,0c0.51,0 0.898,0.051 1.164,0.154c0.265,0.103 0.478,0.285 0.636,0.545c0.159,0.261 0.239,0.548 0.239,0.863c0,0.407 -0.132,0.749 -0.395,1.028c-0.263,0.278 -0.669,0.456 -1.219,0.531c0.201,0.096 0.353,0.191 0.457,0.285c0.222,0.203 0.431,0.457 0.629,0.762l0.996,1.559l-0.953,0l-0.758,-1.192c-0.221,-0.344 -0.403,-0.607 -0.546,-0.789c-0.144,-0.182 -0.272,-0.31 -0.385,-0.383c-0.113,-0.073 -0.229,-0.123 -0.346,-0.152c-0.086,-0.018 -0.226,-0.027 -0.422,-0.027l-0.879,0l0,2.543l-0.757,0Zm0.757,-3.2l1.629,0c0.347,0 0.617,-0.035 0.813,-0.107c0.195,-0.072 0.343,-0.186 0.445,-0.344c0.102,-0.157 0.152,-0.329 0.152,-0.514c0,-0.27 -0.098,-0.493 -0.295,-0.668c-0.196,-0.174 -0.507,-0.261 -0.931,-0.261l-1.813,0l0,1.894Z" style="fill-rule:nonzero;"/>
        <rect x="93.587" y="226.64" width="0.758" height="5.727" style="fill-rule:nonzero;"/>
        <path d="M95.657,232.367l0,-5.727l1.141,0l1.355,4.055c0.125,0.377 0.217,0.66 0.274,0.847c0.065,-0.208 0.167,-0.514 0.305,-0.918l1.371,-3.984l1.019,0l0,5.727l-0.73,0l0,-4.793l-1.664,4.793l-0.684,0l-1.656,-4.875l0,4.875l-0.731,0Z" style="fill-rule:nonzero;"/>
        <path d="M102.36,232.367l0,-5.727l4.141,0l0,0.676l-3.383,0l0,1.754l3.168,0l0,0.672l-3.168,0l0,1.949l3.516,0l0,0.676l-4.274,0Z" style="fill-rule:nonzero;"/>
        <path d="M69.904,67.6l-3.785,-4.298l1.622,-1.428c0.285,-0.251 0.515,-0.429 0.689,-0.534c0.242,-0.151 0.478,-0.24 0.708,-0.267c0.229,-0.027 0.466,0.011 0.71,0.112c0.243,0.101 0.459,0.258 0.646,0.471c0.322,0.366 0.478,0.778 0.469,1.235c-0.01,0.458 -0.319,0.955 -0.927,1.49l-1.102,0.971l1.538,1.747l-0.568,0.501Zm-1.417,-2.755l1.111,-0.979c0.368,-0.323 0.569,-0.622 0.602,-0.894c0.034,-0.273 -0.058,-0.534 -0.276,-0.782c-0.159,-0.18 -0.34,-0.294 -0.543,-0.341c-0.204,-0.048 -0.398,-0.028 -0.583,0.062c-0.118,0.059 -0.306,0.202 -0.564,0.429l-1.099,0.968l1.352,1.537Z" style="fill-rule:nonzero;"/>
        <path d="M73.917,64.066l-3.784,-4.298l1.905,-1.678c0.383,-0.337 0.709,-0.555 0.976,-0.653c0.267,-0.099 0.547,-0.103 0.838,-0.012c0.291,0.09 0.541,0.254 0.749,0.49c0.269,0.305 0.396,0.649 0.383,1.032c-0.013,0.383 -0.201,0.784 -0.563,1.204c0.214,-0.06 0.391,-0.09 0.531,-0.088c0.3,0.006 0.625,0.058 0.975,0.156l1.778,0.512l-0.715,0.629l-1.356,-0.393c-0.394,-0.112 -0.704,-0.189 -0.932,-0.231c-0.228,-0.042 -0.409,-0.053 -0.542,-0.033c-0.133,0.02 -0.253,0.058 -0.36,0.114c-0.077,0.043 -0.188,0.13 -0.335,0.259l-0.66,0.58l1.681,1.909l-0.569,0.501Zm-1.545,-2.902l1.222,-1.077c0.26,-0.228 0.44,-0.434 0.539,-0.617c0.099,-0.183 0.135,-0.367 0.107,-0.552c-0.028,-0.186 -0.103,-0.348 -0.225,-0.487c-0.179,-0.203 -0.4,-0.305 -0.663,-0.306c-0.263,-0.001 -0.553,0.139 -0.872,0.419l-1.36,1.198l1.252,1.422Z" style="fill-rule:nonzero;"/>
        <path d="M78.341,60.17l-3.784,-4.297l0.568,-0.501l3.785,4.298l-0.569,0.5Z" style="fill-rule:nonzero;"/>
        <path d="M79.895,58.802l-3.784,-4.298l0.856,-0.753l3.696,2.147c0.344,0.201 0.599,0.353 0.766,0.455c-0.089,-0.199 -0.215,-0.496 -0.378,-0.89l-1.604,-3.896l0.765,-0.674l3.784,4.298l-0.548,0.483l-3.167,-3.598l1.918,4.697l-0.513,0.452l-4.464,-2.564l3.221,3.658l-0.548,0.483Z" style="fill-rule:nonzero;"/>
        <path d="M84.926,54.372l-3.785,-4.297l3.108,-2.737l0.447,0.507l-2.539,2.236l1.159,1.316l2.377,-2.093l0.444,0.504l-2.377,2.094l1.288,1.462l2.638,-2.323l0.447,0.507l-3.207,2.824Z" style="fill-rule:nonzero;"/>
        <path d="M76.965,275.289l0,-4.295l1.62,0c0.285,0 0.503,0.013 0.653,0.041c0.211,0.035 0.388,0.102 0.531,0.2c0.142,0.099 0.257,0.237 0.344,0.415c0.087,0.178 0.13,0.373 0.13,0.586c0,0.365 -0.116,0.674 -0.348,0.927c-0.233,0.253 -0.653,0.38 -1.26,0.38l-1.102,0l0,1.746l-0.568,0Zm0.568,-2.253l1.111,0c0.367,0 0.628,-0.069 0.782,-0.205c0.154,-0.137 0.231,-0.33 0.231,-0.578c0,-0.179 -0.045,-0.333 -0.136,-0.461c-0.091,-0.128 -0.21,-0.212 -0.359,-0.253c-0.095,-0.026 -0.272,-0.038 -0.53,-0.038l-1.099,0l0,1.535Z" style="fill-rule:nonzero;"/>
        <path d="M80.976,275.289l0,-4.295l1.904,0c0.383,0 0.674,0.038 0.873,0.115c0.199,0.078 0.358,0.214 0.478,0.409c0.119,0.195 0.178,0.411 0.178,0.648c0,0.304 -0.098,0.561 -0.296,0.77c-0.197,0.209 -0.502,0.342 -0.914,0.398c0.151,0.073 0.265,0.144 0.343,0.214c0.166,0.153 0.323,0.343 0.472,0.572l0.747,1.169l-0.715,0l-0.568,-0.894c-0.166,-0.258 -0.303,-0.455 -0.41,-0.592c-0.108,-0.136 -0.204,-0.232 -0.289,-0.287c-0.085,-0.055 -0.171,-0.093 -0.259,-0.114c-0.065,-0.014 -0.17,-0.021 -0.317,-0.021l-0.659,0l0,1.908l-0.568,0Zm0.568,-2.4l1.222,0c0.26,0 0.463,-0.027 0.609,-0.08c0.147,-0.054 0.258,-0.14 0.334,-0.258c0.076,-0.118 0.114,-0.247 0.114,-0.385c0,-0.204 -0.073,-0.371 -0.221,-0.501c-0.147,-0.131 -0.38,-0.197 -0.699,-0.197l-1.359,0l0,1.421Z" style="fill-rule:nonzero;"/>
        <path d="M85.127,273.197c0,-0.713 0.191,-1.271 0.574,-1.675c0.383,-0.403 0.877,-0.604 1.483,-0.604c0.396,0 0.754,0.094 1.072,0.284c0.318,0.189 0.561,0.453 0.728,0.792c0.167,0.339 0.251,0.723 0.251,1.153c0,0.436 -0.088,0.825 -0.264,1.169c-0.176,0.344 -0.425,0.604 -0.747,0.781c-0.323,0.176 -0.67,0.265 -1.043,0.265c-0.405,0 -0.766,-0.098 -1.084,-0.293c-0.319,-0.195 -0.56,-0.462 -0.724,-0.8c-0.164,-0.338 -0.246,-0.695 -0.246,-1.072Zm0.586,0.009c0,0.517 0.139,0.925 0.417,1.223c0.279,0.298 0.628,0.447 1.048,0.447c0.428,0 0.78,-0.151 1.056,-0.452c0.276,-0.3 0.415,-0.727 0.415,-1.28c0,-0.35 -0.06,-0.655 -0.178,-0.915c-0.118,-0.261 -0.291,-0.463 -0.518,-0.607c-0.228,-0.143 -0.483,-0.215 -0.766,-0.215c-0.403,0 -0.749,0.138 -1.039,0.414c-0.29,0.277 -0.435,0.738 -0.435,1.385Z" style="fill-rule:nonzero;"/>
        <path d="M89.967,275.289l0,-4.295l1.479,0c0.334,0 0.589,0.02 0.765,0.061c0.246,0.057 0.456,0.159 0.63,0.308c0.227,0.191 0.396,0.436 0.508,0.734c0.113,0.298 0.169,0.638 0.169,1.021c0,0.326 -0.038,0.615 -0.115,0.867c-0.076,0.252 -0.173,0.46 -0.293,0.625c-0.119,0.165 -0.249,0.295 -0.391,0.39c-0.141,0.095 -0.312,0.167 -0.512,0.215c-0.201,0.049 -0.431,0.074 -0.69,0.074l-1.55,0Zm0.568,-0.507l0.917,0c0.283,0 0.506,-0.027 0.667,-0.079c0.161,-0.053 0.289,-0.127 0.385,-0.223c0.135,-0.135 0.24,-0.316 0.315,-0.543c0.075,-0.228 0.113,-0.504 0.113,-0.828c0,-0.449 -0.074,-0.795 -0.221,-1.036c-0.148,-0.241 -0.327,-0.403 -0.538,-0.485c-0.152,-0.058 -0.397,-0.087 -0.735,-0.087l-0.903,0l0,3.281Z" style="fill-rule:nonzero;"/>
        <path d="M97.118,270.994l0.569,0l0,2.481c0,0.432 -0.049,0.775 -0.147,1.028c-0.097,0.254 -0.274,0.461 -0.529,0.62c-0.255,0.159 -0.589,0.239 -1.003,0.239c-0.402,0 -0.732,-0.069 -0.987,-0.208c-0.256,-0.139 -0.439,-0.34 -0.548,-0.602c-0.11,-0.263 -0.164,-0.622 -0.164,-1.077l0,-2.481l0.568,0l0,2.478c0,0.373 0.035,0.648 0.104,0.825c0.069,0.177 0.189,0.313 0.358,0.409c0.168,0.095 0.375,0.143 0.619,0.143c0.418,0 0.716,-0.095 0.894,-0.284c0.177,-0.189 0.266,-0.554 0.266,-1.093l0,-2.478Z" style="fill-rule:nonzero;"/>
        <path d="M101.697,273.783l0.569,0.143c-0.119,0.467 -0.334,0.823 -0.643,1.068c-0.31,0.245 -0.688,0.368 -1.136,0.368c-0.462,0 -0.839,-0.094 -1.129,-0.283c-0.29,-0.188 -0.511,-0.461 -0.662,-0.819c-0.151,-0.357 -0.227,-0.741 -0.227,-1.151c0,-0.447 0.085,-0.837 0.256,-1.171c0.171,-0.333 0.414,-0.585 0.73,-0.758c0.315,-0.173 0.662,-0.26 1.041,-0.26c0.43,0 0.791,0.11 1.084,0.329c0.293,0.218 0.497,0.526 0.613,0.922l-0.56,0.132c-0.1,-0.312 -0.244,-0.54 -0.434,-0.682c-0.189,-0.143 -0.427,-0.214 -0.714,-0.214c-0.331,0 -0.606,0.079 -0.828,0.237c-0.222,0.158 -0.378,0.371 -0.467,0.637c-0.09,0.267 -0.135,0.542 -0.135,0.825c0,0.365 0.053,0.684 0.159,0.957c0.107,0.272 0.272,0.476 0.497,0.61c0.225,0.135 0.468,0.203 0.73,0.203c0.318,0 0.587,-0.092 0.808,-0.276c0.221,-0.183 0.37,-0.456 0.448,-0.817Z" style="fill-rule:nonzero;"/>
        <path d="M104.059,275.289l0,-3.788l-1.415,0l0,-0.507l3.404,0l0,0.507l-1.421,0l0,3.788l-0.568,0Z" style="fill-rule:nonzero;"/>
        <path d="M109.962,275.289l-0.527,0l0,-3.361c-0.127,0.121 -0.294,0.242 -0.5,0.364c-0.206,0.121 -0.391,0.211 -0.555,0.272l0,-0.51c0.295,-0.138 0.553,-0.306 0.773,-0.504c0.221,-0.197 0.377,-0.388 0.469,-0.574l0.34,0l0,4.313Z" style="fill-rule:nonzero;"/>
        <path d="M76.965,350.443l0,-4.295l1.62,0c0.285,0 0.503,0.014 0.653,0.041c0.211,0.035 0.388,0.102 0.531,0.201c0.142,0.098 0.257,0.236 0.344,0.414c0.087,0.178 0.13,0.373 0.13,0.586c0,0.365 -0.116,0.674 -0.348,0.927c-0.233,0.253 -0.653,0.38 -1.26,0.38l-1.102,0l0,1.746l-0.568,0Zm0.568,-2.253l1.111,0c0.367,0 0.628,-0.068 0.782,-0.205c0.154,-0.137 0.231,-0.329 0.231,-0.577c0,-0.18 -0.045,-0.334 -0.136,-0.462c-0.091,-0.128 -0.21,-0.212 -0.359,-0.253c-0.095,-0.026 -0.272,-0.038 -0.53,-0.038l-1.099,0l0,1.535Z" style="fill-rule:nonzero;"/>
        <path d="M80.976,350.443l0,-4.295l1.904,0c0.383,0 0.674,0.038 0.873,0.116c0.199,0.077 0.358,0.213 0.478,0.408c0.119,0.196 0.178,0.411 0.178,0.648c0,0.304 -0.098,0.561 -0.296,0.77c-0.197,0.209 -0.502,0.342 -0.914,0.399c0.151,0.072 0.265,0.143 0.343,0.214c0.166,0.152 0.323,0.342 0.472,0.571l0.747,1.169l-0.715,0l-0.568,-0.894c-0.166,-0.258 -0.303,-0.455 -0.41,-0.592c-0.108,-0.136 -0.204,-0.232 -0.289,-0.287c-0.085,-0.054 -0.171,-0.092 -0.259,-0.114c-0.065,-0.014 -0.17,-0.02 -0.317,-0.02l-0.659,0l0,1.907l-0.568,0Zm0.568,-2.4l1.222,0c0.26,0 0.463,-0.026 0.609,-0.08c0.147,-0.054 0.258,-0.14 0.334,-0.258c0.076,-0.118 0.114,-0.247 0.114,-0.385c0,-0.203 -0.073,-0.37 -0.221,-0.501c-0.147,-0.131 -0.38,-0.196 -0.699,-0.196l-1.359,0l0,1.42Z" style="fill-rule:nonzero;"/>
        <path d="M85.127,348.351c0,-0.713 0.191,-1.271 0.574,-1.674c0.383,-0.404 0.877,-0.605 1.483,-0.605c0.396,0 0.754,0.094 1.072,0.284c0.318,0.189 0.561,0.454 0.728,0.792c0.167,0.339 0.251,0.724 0.251,1.153c0,0.436 -0.088,0.825 -0.264,1.169c-0.176,0.344 -0.425,0.604 -0.747,0.781c-0.323,0.177 -0.67,0.265 -1.043,0.265c-0.405,0 -0.766,-0.098 -1.084,-0.293c-0.319,-0.195 -0.56,-0.462 -0.724,-0.8c-0.164,-0.338 -0.246,-0.695 -0.246,-1.072Zm0.586,0.009c0,0.517 0.139,0.925 0.417,1.223c0.279,0.298 0.628,0.447 1.048,0.447c0.428,0 0.78,-0.151 1.056,-0.451c0.276,-0.301 0.415,-0.728 0.415,-1.281c0,-0.349 -0.06,-0.654 -0.178,-0.915c-0.118,-0.261 -0.291,-0.463 -0.518,-0.607c-0.228,-0.143 -0.483,-0.215 -0.766,-0.215c-0.403,0 -0.749,0.138 -1.039,0.415c-0.29,0.276 -0.435,0.737 -0.435,1.384Z" style="fill-rule:nonzero;"/>
        <path d="M89.967,350.443l0,-4.295l1.479,0c0.334,0 0.589,0.02 0.765,0.061c0.246,0.057 0.456,0.16 0.63,0.308c0.227,0.191 0.396,0.436 0.508,0.734c0.113,0.298 0.169,0.638 0.169,1.021c0,0.326 -0.038,0.615 -0.115,0.867c-0.076,0.252 -0.173,0.461 -0.293,0.626c-0.119,0.165 -0.249,0.295 -0.391,0.389c-0.141,0.095 -0.312,0.167 -0.512,0.216c-0.201,0.048 -0.431,0.073 -0.69,0.073l-1.55,0Zm0.568,-0.507l0.917,0c0.283,0 0.506,-0.026 0.667,-0.079c0.161,-0.053 0.289,-0.127 0.385,-0.223c0.135,-0.135 0.24,-0.316 0.315,-0.543c0.075,-0.228 0.113,-0.504 0.113,-0.828c0,-0.449 -0.074,-0.794 -0.221,-1.036c-0.148,-0.241 -0.327,-0.402 -0.538,-0.484c-0.152,-0.059 -0.397,-0.088 -0.735,-0.088l-0.903,0l0,3.281Z" style="fill-rule:nonzero;"/>
        <path d="M97.118,346.148l0.569,0l0,2.481c0,0.432 -0.049,0.775 -0.147,1.029c-0.097,0.254 -0.274,0.46 -0.529,0.619c-0.255,0.159 -0.589,0.239 -1.003,0.239c-0.402,0 -0.732,-0.069 -0.987,-0.208c-0.256,-0.139 -0.439,-0.339 -0.548,-0.602c-0.11,-0.263 -0.164,-0.622 -0.164,-1.077l0,-2.481l0.568,0l0,2.478c0,0.373 0.035,0.648 0.104,0.825c0.069,0.177 0.189,0.313 0.358,0.409c0.168,0.096 0.375,0.143 0.619,0.143c0.418,0 0.716,-0.094 0.894,-0.284c0.177,-0.189 0.266,-0.554 0.266,-1.093l0,-2.478Z" style="fill-rule:nonzero;"/>
        <path d="M101.697,348.937l0.569,0.144c-0.119,0.466 -0.334,0.822 -0.643,1.067c-0.31,0.246 -0.688,0.368 -1.136,0.368c-0.462,0 -0.839,-0.094 -1.129,-0.283c-0.29,-0.188 -0.511,-0.461 -0.662,-0.818c-0.151,-0.358 -0.227,-0.742 -0.227,-1.152c0,-0.447 0.085,-0.837 0.256,-1.17c0.171,-0.333 0.414,-0.586 0.73,-0.759c0.315,-0.173 0.662,-0.259 1.041,-0.259c0.43,0 0.791,0.109 1.084,0.328c0.293,0.219 0.497,0.526 0.613,0.923l-0.56,0.131c-0.1,-0.312 -0.244,-0.54 -0.434,-0.682c-0.189,-0.143 -0.427,-0.214 -0.714,-0.214c-0.331,0 -0.606,0.079 -0.828,0.237c-0.222,0.158 -0.378,0.371 -0.467,0.637c-0.09,0.267 -0.135,0.542 -0.135,0.825c0,0.365 0.053,0.684 0.159,0.957c0.107,0.272 0.272,0.476 0.497,0.611c0.225,0.134 0.468,0.202 0.73,0.202c0.318,0 0.587,-0.092 0.808,-0.276c0.221,-0.183 0.37,-0.456 0.448,-0.817Z" style="fill-rule:nonzero;"/>
        <path d="M104.059,350.443l0,-3.788l-1.415,0l0,-0.507l3.404,0l0,0.507l-1.421,0l0,3.788l-0.568,0Z" style="fill-rule:nonzero;"/>
        <path d="M107.979,349.309l0.527,-0.07c0.061,0.299 0.164,0.514 0.309,0.646c0.146,0.132 0.323,0.197 0.532,0.197c0.248,0 0.457,-0.085 0.628,-0.257c0.171,-0.172 0.257,-0.385 0.257,-0.639c0,-0.242 -0.08,-0.442 -0.238,-0.599c-0.158,-0.157 -0.359,-0.236 -0.603,-0.236c-0.1,0 -0.224,0.02 -0.372,0.059l0.058,-0.463c0.035,0.004 0.064,0.006 0.085,0.006c0.225,0 0.427,-0.059 0.607,-0.176c0.179,-0.117 0.269,-0.298 0.269,-0.542c0,-0.194 -0.065,-0.354 -0.196,-0.481c-0.131,-0.127 -0.3,-0.19 -0.507,-0.19c-0.205,0 -0.376,0.064 -0.513,0.193c-0.136,0.129 -0.224,0.323 -0.263,0.58l-0.528,-0.093c0.065,-0.354 0.211,-0.628 0.44,-0.822c0.228,-0.195 0.513,-0.292 0.852,-0.292c0.235,0 0.451,0.051 0.648,0.151c0.197,0.101 0.348,0.238 0.452,0.412c0.105,0.174 0.157,0.358 0.157,0.554c0,0.185 -0.05,0.354 -0.149,0.506c-0.1,0.153 -0.247,0.274 -0.443,0.364c0.254,0.058 0.452,0.18 0.592,0.364c0.141,0.185 0.211,0.416 0.211,0.693c0,0.375 -0.137,0.693 -0.41,0.954c-0.273,0.261 -0.619,0.391 -1.037,0.391c-0.377,0 -0.69,-0.112 -0.939,-0.337c-0.249,-0.225 -0.391,-0.516 -0.426,-0.873Z" style="fill-rule:nonzero;"/>
        <path d="M76.965,310.6l0,-4.294l1.62,0c0.285,0 0.503,0.013 0.653,0.041c0.211,0.035 0.388,0.102 0.531,0.2c0.142,0.099 0.257,0.237 0.344,0.415c0.087,0.177 0.13,0.373 0.13,0.586c0,0.365 -0.116,0.674 -0.348,0.927c-0.233,0.253 -0.653,0.379 -1.26,0.379l-1.102,0l0,1.746l-0.568,0Zm0.568,-2.253l1.111,0c0.367,0 0.628,-0.068 0.782,-0.205c0.154,-0.136 0.231,-0.329 0.231,-0.577c0,-0.179 -0.045,-0.333 -0.136,-0.461c-0.091,-0.128 -0.21,-0.213 -0.359,-0.254c-0.095,-0.025 -0.272,-0.038 -0.53,-0.038l-1.099,0l0,1.535Z" style="fill-rule:nonzero;"/>
        <path d="M80.976,310.6l0,-4.294l1.904,0c0.383,0 0.674,0.038 0.873,0.115c0.199,0.077 0.358,0.214 0.478,0.409c0.119,0.195 0.178,0.411 0.178,0.647c0,0.305 -0.098,0.562 -0.296,0.771c-0.197,0.209 -0.502,0.342 -0.914,0.398c0.151,0.073 0.265,0.144 0.343,0.214c0.166,0.153 0.323,0.343 0.472,0.571l0.747,1.169l-0.715,0l-0.568,-0.893c-0.166,-0.258 -0.303,-0.455 -0.41,-0.592c-0.108,-0.137 -0.204,-0.232 -0.289,-0.287c-0.085,-0.055 -0.171,-0.093 -0.259,-0.114c-0.065,-0.014 -0.17,-0.021 -0.317,-0.021l-0.659,0l0,1.907l-0.568,0Zm0.568,-2.399l1.222,0c0.26,0 0.463,-0.027 0.609,-0.081c0.147,-0.053 0.258,-0.139 0.334,-0.257c0.076,-0.119 0.114,-0.247 0.114,-0.386c0,-0.203 -0.073,-0.37 -0.221,-0.501c-0.147,-0.13 -0.38,-0.196 -0.699,-0.196l-1.359,0l0,1.421Z" style="fill-rule:nonzero;"/>
        <path d="M85.127,308.509c0,-0.713 0.191,-1.271 0.574,-1.675c0.383,-0.403 0.877,-0.605 1.483,-0.605c0.396,0 0.754,0.095 1.072,0.285c0.318,0.189 0.561,0.453 0.728,0.792c0.167,0.339 0.251,0.723 0.251,1.153c0,0.435 -0.088,0.825 -0.264,1.169c-0.176,0.344 -0.425,0.604 -0.747,0.781c-0.323,0.176 -0.67,0.265 -1.043,0.265c-0.405,0 -0.766,-0.098 -1.084,-0.293c-0.319,-0.196 -0.56,-0.462 -0.724,-0.8c-0.164,-0.338 -0.246,-0.695 -0.246,-1.072Zm0.586,0.008c0,0.518 0.139,0.926 0.417,1.224c0.279,0.297 0.628,0.446 1.048,0.446c0.428,0 0.78,-0.15 1.056,-0.451c0.276,-0.301 0.415,-0.727 0.415,-1.28c0,-0.35 -0.06,-0.655 -0.178,-0.916c-0.118,-0.26 -0.291,-0.463 -0.518,-0.606c-0.228,-0.144 -0.483,-0.215 -0.766,-0.215c-0.403,0 -0.749,0.138 -1.039,0.414c-0.29,0.277 -0.435,0.738 -0.435,1.384Z" style="fill-rule:nonzero;"/>
        <path d="M89.967,310.6l0,-4.294l1.479,0c0.334,0 0.589,0.02 0.765,0.061c0.246,0.057 0.456,0.159 0.63,0.308c0.227,0.191 0.396,0.436 0.508,0.734c0.113,0.297 0.169,0.638 0.169,1.021c0,0.326 -0.038,0.615 -0.115,0.867c-0.076,0.252 -0.173,0.46 -0.293,0.625c-0.119,0.165 -0.249,0.295 -0.391,0.39c-0.141,0.095 -0.312,0.166 -0.512,0.215c-0.201,0.049 -0.431,0.073 -0.69,0.073l-1.55,0Zm0.568,-0.506l0.917,0c0.283,0 0.506,-0.027 0.667,-0.08c0.161,-0.052 0.289,-0.126 0.385,-0.222c0.135,-0.135 0.24,-0.316 0.315,-0.544c0.075,-0.227 0.113,-0.503 0.113,-0.827c0,-0.449 -0.074,-0.795 -0.221,-1.036c-0.148,-0.241 -0.327,-0.403 -0.538,-0.485c-0.152,-0.058 -0.397,-0.088 -0.735,-0.088l-0.903,0l0,3.282Z" style="fill-rule:nonzero;"/>
        <path d="M97.118,306.306l0.569,0l0,2.481c0,0.432 -0.049,0.774 -0.147,1.028c-0.097,0.254 -0.274,0.461 -0.529,0.62c-0.255,0.159 -0.589,0.239 -1.003,0.239c-0.402,0 -0.732,-0.07 -0.987,-0.208c-0.256,-0.139 -0.439,-0.34 -0.548,-0.602c-0.11,-0.263 -0.164,-0.622 -0.164,-1.077l0,-2.481l0.568,0l0,2.478c0,0.373 0.035,0.648 0.104,0.825c0.069,0.176 0.189,0.313 0.358,0.408c0.168,0.096 0.375,0.144 0.619,0.144c0.418,0 0.716,-0.095 0.894,-0.284c0.177,-0.19 0.266,-0.554 0.266,-1.093l0,-2.478Z" style="fill-rule:nonzero;"/>
        <path d="M101.697,309.095l0.569,0.143c-0.119,0.467 -0.334,0.823 -0.643,1.068c-0.31,0.245 -0.688,0.368 -1.136,0.368c-0.462,0 -0.839,-0.095 -1.129,-0.283c-0.29,-0.189 -0.511,-0.461 -0.662,-0.819c-0.151,-0.357 -0.227,-0.741 -0.227,-1.151c0,-0.448 0.085,-0.838 0.256,-1.171c0.171,-0.333 0.414,-0.586 0.73,-0.758c0.315,-0.173 0.662,-0.26 1.041,-0.26c0.43,0 0.791,0.11 1.084,0.328c0.293,0.219 0.497,0.527 0.613,0.923l-0.56,0.132c-0.1,-0.312 -0.244,-0.54 -0.434,-0.683c-0.189,-0.142 -0.427,-0.213 -0.714,-0.213c-0.331,0 -0.606,0.079 -0.828,0.237c-0.222,0.158 -0.378,0.37 -0.467,0.637c-0.09,0.267 -0.135,0.542 -0.135,0.825c0,0.365 0.053,0.684 0.159,0.956c0.107,0.273 0.272,0.476 0.497,0.611c0.225,0.135 0.468,0.202 0.73,0.202c0.318,0 0.587,-0.091 0.808,-0.275c0.221,-0.184 0.37,-0.456 0.448,-0.817Z" style="fill-rule:nonzero;"/>
        <path d="M104.059,310.6l0,-3.788l-1.415,0l0,-0.506l3.404,0l0,0.506l-1.421,0l0,3.788l-0.568,0Z" style="fill-rule:nonzero;"/>
        <path d="M110.747,310.094l0,0.506l-2.839,0c-0.004,-0.127 0.017,-0.249 0.062,-0.366c0.072,-0.193 0.188,-0.384 0.347,-0.571c0.159,-0.188 0.389,-0.404 0.69,-0.65c0.467,-0.383 0.782,-0.687 0.946,-0.91c0.164,-0.224 0.246,-0.435 0.246,-0.634c0,-0.209 -0.074,-0.386 -0.224,-0.529c-0.149,-0.144 -0.344,-0.216 -0.584,-0.216c-0.254,0 -0.457,0.077 -0.61,0.229c-0.152,0.152 -0.229,0.363 -0.231,0.633l-0.542,-0.056c0.037,-0.404 0.177,-0.712 0.419,-0.924c0.242,-0.212 0.567,-0.318 0.975,-0.318c0.413,0 0.739,0.114 0.979,0.343c0.24,0.228 0.36,0.511 0.36,0.849c0,0.172 -0.035,0.341 -0.105,0.507c-0.07,0.166 -0.187,0.341 -0.35,0.525c-0.163,0.183 -0.434,0.435 -0.813,0.755c-0.317,0.266 -0.52,0.446 -0.61,0.541c-0.089,0.095 -0.164,0.19 -0.222,0.286l2.106,0Z" style="fill-rule:nonzero;"/>
        <path d="M3.948,275.276l0,-6.442l1.283,0l1.525,4.562c0.141,0.424 0.243,0.742 0.308,0.953c0.073,-0.234 0.187,-0.578 0.342,-1.033l1.543,-4.482l1.147,0l0,6.442l-0.822,0l0,-5.392l-1.872,5.392l-0.769,0l-1.863,-5.484l0,5.484l-0.822,0Z" style="fill-rule:nonzero;"/>
        <path d="M11.489,275.276l0,-6.442l4.658,0l0,0.76l-3.806,0l0,1.973l3.564,0l0,0.756l-3.564,0l0,2.193l3.955,0l0,0.76l-4.807,0Z" style="fill-rule:nonzero;"/>
        <path d="M16.767,275.276l2.474,-6.442l0.918,0l2.637,6.442l-0.971,0l-0.752,-1.951l-2.694,0l-0.707,1.951l-0.905,0Zm1.859,-2.645l2.184,0l-0.673,-1.784c-0.205,-0.542 -0.357,-0.988 -0.457,-1.336c-0.082,0.413 -0.198,0.823 -0.347,1.23l-0.707,1.89Z" style="fill-rule:nonzero;"/>
        <path d="M23.187,273.207l0.804,-0.071c0.038,0.323 0.127,0.587 0.266,0.793c0.139,0.207 0.355,0.374 0.648,0.501c0.293,0.128 0.623,0.192 0.989,0.192c0.325,0 0.612,-0.049 0.861,-0.145c0.249,-0.097 0.435,-0.23 0.556,-0.398c0.122,-0.169 0.183,-0.352 0.183,-0.552c0,-0.202 -0.059,-0.378 -0.176,-0.529c-0.117,-0.151 -0.311,-0.278 -0.58,-0.38c-0.173,-0.068 -0.555,-0.172 -1.147,-0.315c-0.592,-0.142 -1.006,-0.276 -1.244,-0.402c-0.307,-0.161 -0.537,-0.361 -0.688,-0.599c-0.15,-0.239 -0.226,-0.507 -0.226,-0.802c0,-0.326 0.092,-0.63 0.277,-0.912c0.185,-0.283 0.454,-0.498 0.809,-0.644c0.354,-0.147 0.748,-0.22 1.182,-0.22c0.477,0 0.898,0.077 1.263,0.231c0.365,0.154 0.645,0.38 0.842,0.679c0.196,0.299 0.301,0.637 0.316,1.015l-0.817,0.061c-0.044,-0.407 -0.193,-0.714 -0.446,-0.922c-0.254,-0.208 -0.628,-0.312 -1.123,-0.312c-0.516,0 -0.891,0.094 -1.127,0.283c-0.236,0.189 -0.354,0.417 -0.354,0.683c0,0.232 0.083,0.422 0.25,0.572c0.164,0.149 0.593,0.302 1.286,0.459c0.693,0.157 1.168,0.294 1.426,0.411c0.375,0.173 0.652,0.392 0.83,0.657c0.179,0.265 0.268,0.57 0.268,0.916c0,0.343 -0.098,0.666 -0.294,0.969c-0.196,0.303 -0.478,0.539 -0.846,0.708c-0.368,0.168 -0.781,0.252 -1.241,0.252c-0.583,0 -1.072,-0.085 -1.466,-0.255c-0.394,-0.17 -0.703,-0.425 -0.927,-0.766c-0.224,-0.342 -0.342,-0.728 -0.354,-1.158Z" style="fill-rule:nonzero;"/>
        <path d="M33.708,268.834l0.852,0l0,3.722c0,0.648 -0.073,1.162 -0.22,1.543c-0.146,0.381 -0.41,0.69 -0.793,0.929c-0.382,0.239 -0.884,0.358 -1.505,0.358c-0.603,0 -1.097,-0.104 -1.481,-0.312c-0.384,-0.208 -0.658,-0.509 -0.822,-0.903c-0.164,-0.394 -0.246,-0.932 -0.246,-1.615l0,-3.722l0.853,0l0,3.718c0,0.559 0.052,0.972 0.156,1.237c0.104,0.265 0.282,0.469 0.536,0.613c0.253,0.143 0.563,0.215 0.929,0.215c0.627,0 1.074,-0.142 1.341,-0.426c0.266,-0.284 0.4,-0.831 0.4,-1.639l0,-3.718Z" style="fill-rule:nonzero;"/>
        <path d="M35.993,275.276l0,-6.442l2.856,0c0.574,0 1.011,0.058 1.31,0.174c0.299,0.115 0.537,0.32 0.716,0.613c0.179,0.293 0.268,0.616 0.268,0.971c0,0.457 -0.148,0.842 -0.444,1.156c-0.296,0.313 -0.753,0.512 -1.371,0.597c0.226,0.109 0.397,0.216 0.514,0.321c0.249,0.229 0.485,0.514 0.708,0.857l1.12,1.753l-1.072,0l-0.852,-1.34c-0.249,-0.387 -0.454,-0.683 -0.616,-0.888c-0.161,-0.205 -0.305,-0.348 -0.432,-0.43c-0.128,-0.082 -0.258,-0.139 -0.389,-0.172c-0.097,-0.02 -0.255,-0.03 -0.475,-0.03l-0.989,0l0,2.86l-0.852,0Zm0.852,-3.599l1.833,0c0.389,0 0.694,-0.04 0.914,-0.121c0.22,-0.08 0.387,-0.209 0.501,-0.386c0.114,-0.178 0.171,-0.37 0.171,-0.578c0,-0.305 -0.11,-0.555 -0.332,-0.752c-0.221,-0.196 -0.57,-0.294 -1.048,-0.294l-2.039,0l0,2.131Z" style="fill-rule:nonzero;"/>
        <path d="M42.497,275.276l0,-6.442l4.658,0l0,0.76l-3.806,0l0,1.973l3.564,0l0,0.756l-3.564,0l0,2.193l3.955,0l0,0.76l-4.807,0Z" style="fill-rule:nonzero;"/>
    </g>
</svg>
